<svg width="180" height="12" viewBox="0 0 180 12" fill="none" xmlns="http://www.w3.org/2000/svg">
<path opacity="0.9" d="M2.86609 3.66797C4.23719 3.66797 4.93641 4.40234 4.93641 5.48047C4.93641 6.35938 4.31531 6.84766 3.99891 6.98828L5.04969 9H3.35047L2.48328 7.1875H1.98328V9H0.471561V3.66797H2.86609ZM1.98328 6.14453H2.62781C3.02625 6.14453 3.34656 5.92969 3.34656 5.47656C3.34656 5.01562 3.00672 4.78516 2.63172 4.78516H1.98328V6.14453ZM6.78594 9H5.25859L6.90312 3.66797H8.84062L10.4734 9H8.825L8.56328 7.93359H7.05547L6.78594 9ZM7.85625 4.96875H7.78203L7.31719 6.83984H8.30937L7.85625 4.96875ZM12.573 9H11.03V3.66797H14.7527V4.88281H12.573V5.94141H14.5495V7.11328H12.573V9ZM16.7233 9L15.1217 3.66797H16.9225L17.7428 7.40234H17.8131L18.61 3.66797H20.3014L18.7311 9H16.7233ZM24.5923 7.80469V9H20.8541V3.66797H24.5923V4.86328H22.3814V5.78906H24.4478V6.875H22.3814V7.80469H24.5923ZM27.8833 3.66797C29.2544 3.66797 29.9536 4.40234 29.9536 5.48047C29.9536 6.35938 29.3325 6.84766 29.0161 6.98828L30.0669 9H28.3677L27.5005 7.1875H27.0005V9H25.4887V3.66797H27.8833ZM27.0005 6.14453H27.645C28.0434 6.14453 28.3637 5.92969 28.3637 5.47656C28.3637 5.01562 28.0239 4.78516 27.6489 4.78516H27.0005V6.14453ZM35.5922 3.66797L33.8031 5.99609L35.6469 9H33.8539L32.6781 7.00781L32.2758 7.5V9H30.7328V3.66797H32.2758V5.80859H32.3461L33.975 3.66797H35.5922ZM38.6058 9H37.0628V4.91016H35.68V3.66797H39.9886V4.91016H38.6058V9ZM41.2209 9H39.6936L41.3381 3.66797H43.2756L44.9084 9H43.26L42.9983 7.93359H41.4905L41.2209 9ZM42.2912 4.96875H42.217L41.7522 6.83984H42.7444L42.2912 4.96875ZM50.3244 3.66797L48.5353 5.99609L50.3791 9H48.5861L47.4103 7.00781L47.008 7.5V9H45.465V3.66797H47.008V5.80859H47.0783L48.7072 3.66797H50.3244ZM52.0606 9H50.5333L52.1778 3.66797H54.1153L55.7481 9H54.0997L53.838 7.93359H52.3302L52.0606 9ZM53.1309 4.96875H53.0567L52.5919 6.83984H53.5841L53.1309 4.96875ZM58.6992 3.66797C60.0703 3.66797 60.7695 4.40234 60.7695 5.48047C60.7695 6.35938 60.1484 6.84766 59.832 6.98828L60.8828 9H59.1836L58.3164 7.1875H57.8164V9H56.3047V3.66797H58.6992ZM57.8164 6.14453H58.4609C58.8594 6.14453 59.1797 5.92969 59.1797 5.47656C59.1797 5.01562 58.8398 4.78516 58.4648 4.78516H57.8164V6.14453Z" fill="black"/>
<path opacity="0.9" d="M72.1061 9.09375C70.6569 9.09375 69.8092 8.44141 69.8092 7.51953C69.8092 6.66016 70.4459 6.29688 70.9811 6.21094V6.15625C70.4147 5.99219 70.0241 5.64062 70.0241 4.97266C70.0241 4.17578 70.8014 3.57812 72.11 3.57812C73.4186 3.57812 74.1959 4.17578 74.1959 4.97266C74.1959 5.64453 73.8014 5.99219 73.235 6.15625V6.21094C73.7741 6.29688 74.4108 6.66406 74.4108 7.51953C74.4108 8.44141 73.5592 9.09375 72.1061 9.09375ZM72.11 5.76953C72.4616 5.76953 72.7311 5.52734 72.7311 5.18359C72.7311 4.83594 72.4616 4.59766 72.11 4.59766C71.7584 4.59766 71.4889 4.83594 71.4889 5.18359C71.4889 5.52734 71.7584 5.76953 72.11 5.76953ZM72.11 8.07812C72.5319 8.07812 72.8678 7.80469 72.8678 7.39062C72.8678 6.97266 72.5319 6.69531 72.11 6.69531C71.6842 6.69531 71.3522 6.97266 71.3522 7.39062C71.3522 7.80469 71.6842 8.07812 72.11 8.07812ZM76.3502 5.41406H74.9166V5.32422C74.9166 4.32422 75.7837 3.57812 76.9869 3.57812C78.1705 3.57812 78.9634 4.19922 78.9634 5.11719C78.9634 5.70312 78.7212 6.10547 77.9908 6.82812L77.0884 7.74609V7.80078H79.0494V9H75.0259V8.05469L76.8814 6.21484C77.2916 5.81641 77.4556 5.56641 77.4556 5.28125C77.4556 4.97266 77.2291 4.75781 76.9087 4.75781C76.5884 4.75781 76.3502 5 76.3502 5.30859V5.41406ZM81.3208 3.66797H83.5005V6.98828H84.0942V8.16797H83.5005V9H82.0669V8.16797H79.5083V6.96875C80.0708 5.84375 80.7036 4.74609 81.3208 3.66797ZM80.813 6.98828H82.0669V4.73047H82.0005C81.5825 5.46094 81.1802 6.17188 80.813 6.97266V6.98828ZM87.6448 5.41406H86.2112V5.32422C86.2112 4.32422 87.0784 3.57812 88.2816 3.57812C89.4652 3.57812 90.2581 4.19922 90.2581 5.11719C90.2581 5.70312 90.0159 6.10547 89.2855 6.82812L88.3831 7.74609V7.80078H90.3441V9H86.3206V8.05469L88.1761 6.21484C88.5862 5.81641 88.7503 5.56641 88.7503 5.28125C88.7503 4.97266 88.5237 4.75781 88.2034 4.75781C87.8831 4.75781 87.6448 5 87.6448 5.30859V5.41406ZM92.6155 3.66797H94.7952V6.98828H95.3889V8.16797H94.7952V9H93.3616V8.16797H90.803V6.96875C91.3655 5.84375 91.9983 4.74609 92.6155 3.66797ZM92.1077 6.98828H93.3616V4.73047H93.2952C92.8772 5.46094 92.4748 6.17188 92.1077 6.97266V6.98828ZM100.051 5.10547H98.6564C98.6173 4.87109 98.3712 4.72656 98.09 4.72656C97.4103 4.72656 97.2384 5.57812 97.2931 6.21094H97.3712C97.5002 5.90625 97.7931 5.46875 98.5353 5.46875C99.4064 5.46875 100.16 6.07422 100.16 7.1875C100.16 8.41797 99.2384 9.08984 98.0978 9.08984C97.3947 9.08984 96.8361 8.83203 96.4533 8.36328C96.0744 7.89062 95.8673 7.20703 95.8673 6.35156C95.8673 4.63281 96.6837 3.58203 98.1134 3.58203C99.4064 3.58203 100.027 4.43359 100.051 5.10547ZM97.4572 7.23828C97.4572 7.64453 97.7111 7.94141 98.09 7.94141C98.465 7.94141 98.7189 7.65234 98.7189 7.23438C98.7189 6.82812 98.4689 6.52734 98.09 6.52734C97.7033 6.52734 97.4572 6.83594 97.4572 7.23828ZM103.471 9H101.94V5.03125H101.869C101.49 5.29297 101.076 5.56641 100.686 5.83594V4.51562C101.104 4.23047 101.529 3.94531 101.947 3.66797H103.471V9Z" fill="black"/>
<path opacity="0.9" d="M114.384 9H112.841V3.66797H114.384V9ZM115.159 7.38672H116.612C116.624 7.66406 116.905 7.94922 117.448 7.94922C117.972 7.94922 118.175 7.73438 118.175 7.48047C118.175 7.1875 117.909 7.07812 117.417 6.98438L116.741 6.85938C115.89 6.70312 115.253 6.26562 115.253 5.29297C115.253 4.19922 116.14 3.57812 117.433 3.57812C118.878 3.57812 119.577 4.39453 119.581 5.25H118.179C118.167 4.99609 117.933 4.70312 117.433 4.70312C116.991 4.70312 116.784 4.90625 116.784 5.16797C116.784 5.41406 117.046 5.54688 117.487 5.62109L118.194 5.73828C118.94 5.85938 119.687 6.23828 119.687 7.31641C119.687 8.35547 118.925 9.09375 117.409 9.09375C115.694 9.09375 115.167 8.19531 115.159 7.38672ZM121.54 9H120.013L121.657 3.66797H123.595L125.227 9H123.579L123.317 7.93359H121.81L121.54 9ZM122.61 4.96875H122.536L122.071 6.83984H123.063L122.61 4.96875ZM130.643 3.66797L128.854 5.99609L130.698 9H128.905L127.729 7.00781L127.327 7.5V9H125.784V3.66797H127.327V5.80859H127.397L129.026 3.66797H130.643ZM135.805 8.48047C135.407 8.48047 134.891 8.31641 134.762 7.88672H134.727C134.602 8.3125 134.2 8.47656 133.794 8.47656C133.091 8.47656 132.622 8.00781 132.622 7.19141V6.66797C132.622 5.91406 133.075 5.42578 133.778 5.42578C134.337 5.42578 134.591 5.73438 134.665 6.01562H134.692V5.48047H135.614V7.46094C135.614 7.67188 135.751 7.79297 135.934 7.79297C136.169 7.79297 136.43 7.44141 136.43 6.58984V6.50391C136.43 5.35547 135.571 4.45703 134.247 4.45703H134.212C132.778 4.45703 131.88 5.40625 131.88 6.84766V6.96875C131.88 8.63672 132.989 9.29688 134.126 9.29688H134.169C134.563 9.29688 134.938 9.23828 135.13 9.15234V9.875C134.946 9.95703 134.587 10.0156 134.098 10.0156H134.055C132.305 10.0156 131.036 8.92969 131.036 6.99219V6.82031C131.036 4.96094 132.305 3.72266 134.212 3.72266H134.243C136.157 3.72266 137.255 5.00391 137.255 6.46875V6.65234C137.255 7.67969 136.766 8.48047 135.805 8.48047ZM133.637 7.03906C133.637 7.51953 133.813 7.6875 134.102 7.6875C134.341 7.6875 134.552 7.57422 134.552 7.09766V6.75781C134.552 6.32422 134.321 6.19922 134.095 6.19922C133.809 6.19922 133.637 6.39453 133.637 6.85156V7.03906ZM139.186 9H137.659L139.303 3.66797H141.241L142.874 9H141.225L140.964 7.93359H139.456L139.186 9ZM140.257 4.96875H140.182L139.717 6.83984H140.71L140.257 4.96875ZM146.981 7.73047V9H143.43V3.66797H144.973V7.73047H146.981ZM151.233 7.73047V9H147.682V3.66797H149.225V7.73047H151.233ZM153.922 9H152.379V4.91016H150.997V3.66797H155.305V4.91016H153.922V9ZM158.284 3.66797C159.655 3.66797 160.354 4.40234 160.354 5.48047C160.354 6.35938 159.733 6.84766 159.416 6.98828L160.467 9H158.768L157.901 7.1875H157.401V9H155.889V3.66797H158.284ZM157.401 6.14453H158.045C158.444 6.14453 158.764 5.92969 158.764 5.47656C158.764 5.01562 158.424 4.78516 158.049 4.78516H157.401V6.14453ZM162.203 9H160.676L162.321 3.66797H164.258L165.891 9H164.242L163.981 7.93359H162.473L162.203 9ZM163.274 4.96875H163.2L162.735 6.83984H163.727L163.274 4.96875ZM167.99 9H166.447V3.66797H170.17V4.88281H167.99V5.94141H169.967V7.11328H167.99V9ZM170.391 8.28906C170.391 7.84375 170.754 7.48047 171.199 7.48047C171.641 7.48047 172.004 7.84375 172.004 8.28906C172.004 8.73047 171.641 9.09375 171.199 9.09375C170.754 9.09375 170.391 8.73047 170.391 8.28906ZM174.463 9H172.92V3.66797H174.463V9ZM175.238 7.38672H176.691C176.703 7.66406 176.984 7.94922 177.527 7.94922C178.051 7.94922 178.254 7.73438 178.254 7.48047C178.254 7.1875 177.988 7.07812 177.496 6.98438L176.82 6.85938C175.969 6.70312 175.332 6.26562 175.332 5.29297C175.332 4.19922 176.219 3.57812 177.512 3.57812C178.957 3.57812 179.656 4.39453 179.66 5.25H178.258C178.246 4.99609 178.012 4.70312 177.512 4.70312C177.07 4.70312 176.863 4.90625 176.863 5.16797C176.863 5.41406 177.125 5.54688 177.566 5.62109L178.273 5.73828C179.02 5.85938 179.766 6.23828 179.766 7.31641C179.766 8.35547 179.004 9.09375 177.488 9.09375C175.773 9.09375 175.246 8.19531 175.238 7.38672Z" fill="black"/>
</svg>
