<svg width="1048" height="567" viewBox="0 0 1048 567" fill="none" xmlns="http://www.w3.org/2000/svg">
<g clip-path="url(#clip0_5_86)">
<path d="M608 428.99L469.99 567H0V138.365L138.365 0H608V428.99Z" fill="#123BF3"/>
<path d="M369.082 506.071V429.853H385.959V460.667H389.552L410.349 429.853H430.928L404.034 466.764L432.235 506.071H411.22L389.77 474.495H385.959V506.071H369.082Z" fill="white"/>
<path d="M267.138 506.071H250.261V443.681H228.92V429.853H288.479V443.681H267.138V506.071Z" fill="white"/>
<path d="M174.412 506.071H157.535V429.853H177.134L204.791 481.028H205.444V429.853H222.321V506.071H203.375L175.065 455.549H174.412V506.071Z" fill="white"/>
<path d="M148.244 506.071H104.227V492.243H117.906V443.681H104.227V429.853H148.353V443.681H134.565V492.243H148.244V506.071Z" fill="white"/>
<path d="M38.582 483.533H56.1124C57.0923 489.195 60.7944 493.006 69.3962 493.006C76.3648 493.006 81.809 490.611 81.809 484.84C81.809 480.485 78.7602 477.98 72.9894 476.565L59.8144 473.08C46.2039 469.378 39.4531 462.083 39.4531 451.304C39.4531 436.278 52.0836 428.982 68.9607 428.982C88.4509 428.982 97.2705 439.544 98.3593 452.066H80.7201C80.2846 447.71 77.5625 442.811 68.7429 442.811C61.8832 442.811 57.0923 445.642 57.0923 450.759C57.0923 455.659 61.2299 457.51 65.9119 458.817L79.5224 462.519C94.4395 466.438 99.1215 474.06 99.1215 483.533C99.1215 498.45 87.362 506.834 69.1784 506.834C47.5105 506.834 39.6709 496.49 38.582 483.533Z" fill="white"/>
<path fill-rule="evenodd" clip-rule="evenodd" d="M326.197 428.579C334.323 428.579 342.891 430.949 349.433 436.867C355.982 442.792 360.451 452.23 360.451 466.264V471.882H307.828C308.257 478.848 310.341 484.242 313.559 487.907C316.835 491.638 321.31 493.607 326.496 493.607C334.948 493.607 340.495 488.348 342.654 482.186H343.074C342.959 482.523 342.836 482.859 342.701 483.191H342.702C342.837 482.859 342.96 482.523 343.075 482.186H359.673C356.249 496.875 344.116 507.079 326.496 507.08C316.183 507.08 307.272 503.426 300.943 496.644C294.616 489.863 290.9 479.99 290.899 467.606C290.899 455.371 294.579 445.61 300.851 438.904C307.124 432.196 315.959 428.579 326.197 428.579ZM326.496 506.681C326.389 506.681 326.282 506.679 326.175 506.678L326.496 506.682C326.774 506.682 327.05 506.679 327.324 506.674C327.373 506.673 327.423 506.671 327.472 506.669C327.148 506.676 326.823 506.681 326.496 506.681ZM325.542 506.671L325.695 506.672C325.571 506.67 325.446 506.667 325.322 506.664C325.395 506.666 325.469 506.67 325.542 506.671ZM327.674 506.664C327.831 506.659 327.987 506.657 328.144 506.651C328.246 506.647 328.349 506.641 328.451 506.636C328.193 506.648 327.934 506.657 327.674 506.664ZM324.477 506.631C324.585 506.637 324.694 506.642 324.803 506.646C324.694 506.642 324.585 506.637 324.477 506.631ZM328.632 506.628C328.918 506.615 329.203 506.598 329.486 506.579C329.203 506.598 328.918 506.615 328.632 506.628ZM332.408 506.271C331.487 506.402 330.546 506.503 329.587 506.572C329.644 506.568 329.7 506.565 329.757 506.561C330.555 506.501 331.34 506.419 332.112 506.315C332.211 506.302 332.31 506.285 332.408 506.271ZM332.591 506.245C332.831 506.209 333.069 506.172 333.307 506.132C333.069 506.172 332.831 506.209 332.591 506.245ZM334.388 505.939C334.098 505.996 333.806 506.049 333.512 506.099C334.057 506.005 334.596 505.902 335.128 505.787L334.388 505.939ZM331.989 493.202C331.751 493.275 331.509 493.345 331.264 493.409V493.41C331.509 493.345 331.751 493.276 331.989 493.203V493.202ZM326.048 442.053C321.299 442.053 317.113 443.732 313.948 446.842C310.862 449.876 308.725 454.293 308.005 459.9H343.389C343.232 454.433 341.344 450.017 338.33 446.95C335.242 443.807 330.947 442.053 326.048 442.053Z" fill="white"/>
</g>
<path d="M692.444 37H686.108L678.116 11.8H683.372L689.132 31.852H689.42L695.252 11.8H700.472L692.444 37ZM716.981 37H702.149V33.004H707.225V15.796H702.185V11.8H716.981V15.796H711.941V33.004H716.981V37ZM730.156 37H721.156V26.128H718.816V22.528H721.156V11.8H730.156C736.204 11.8 741.28 15.58 741.28 24.292C741.28 33.148 736.168 37 730.156 37ZM725.944 32.86H729.76C733.684 32.86 736.24 29.62 736.24 24.292C736.24 19 733.756 15.94 729.76 15.94H725.944V22.528H730.876V26.128H725.944V32.86ZM764.609 37H759.821V26.38H749.417V37H744.629V11.8H749.417V22.384H759.821V11.8H764.609V37ZM766.994 37L775.742 11.8H781.97L790.61 37H785.426L783.266 30.124H774.374L772.214 37H766.994ZM778.694 16.516L775.598 26.308H782.078L779.018 16.516H778.694ZM807.637 37H792.985V11.8H797.809V33.004H807.637V37ZM819.084 37H810.084V11.8H819.084C825.132 11.8 830.208 15.58 830.208 24.292C830.208 33.148 825.096 37 819.084 37ZM814.872 32.86H818.688C822.612 32.86 825.168 29.62 825.168 24.292C825.168 19 822.684 15.94 818.688 15.94H814.872V32.86ZM861.95 26.632H858.53C857.99 27.928 857.414 29.332 856.658 30.664L862.742 37H857.378L854.426 33.904C852.662 35.884 850.25 37.288 846.902 37.288C842.078 37.288 838.622 34.516 838.55 30.304C838.514 26.992 840.782 24.688 844.058 22.96L843.41 22.312C842.258 21.124 841.286 19.648 841.286 17.74C841.286 14.5 843.878 11.548 848.234 11.548C851.978 11.548 854.966 13.708 854.966 17.128C854.966 19.972 852.914 22.024 849.998 23.716L854.138 28.036C854.966 26.488 855.578 24.76 856.154 22.996H861.95V26.632ZM842.906 29.98C842.942 32.176 844.742 33.544 847.154 33.544C849.062 33.544 850.646 32.68 851.942 31.276L846.398 25.48C844.202 26.668 842.906 28.216 842.906 29.98ZM845.426 17.56C845.426 18.856 846.326 19.864 847.658 21.268C849.926 20.008 850.862 18.712 850.862 17.38C850.826 15.832 849.782 14.968 848.234 14.968C846.47 14.968 845.426 16.156 845.426 17.56ZM872.28 37V11.8H877.068V15.796H883.296C888.444 15.796 891.036 19.54 891.036 24.112C891.036 27.892 889.272 32.536 883.116 32.536H877.068V37H872.28ZM877.068 19.792V28.54H882.252C884.664 28.54 886.176 26.956 886.176 24.112C886.176 21.844 885.168 19.792 882.18 19.792H877.068ZM901.285 37.288C896.137 37.288 893.185 33.976 892.969 29.584H897.649C897.793 31.492 898.837 33.184 901.177 33.184C903.625 33.184 904.705 31.42 904.705 28.792V11.8H909.493V28.828C909.493 34.156 906.289 37.288 901.285 37.288ZM923.862 37.288C917.598 37.288 912.81 32.86 912.81 24.292C912.81 15.832 917.598 11.512 923.862 11.512C930.234 11.512 934.95 15.832 934.95 24.292C934.95 32.788 930.234 37.288 923.862 37.288ZM917.814 24.292C917.814 29.476 920.01 33.148 923.862 33.148C927.75 33.148 929.982 29.476 929.982 24.292C929.982 19.108 927.75 15.652 923.862 15.652C920.01 15.652 917.814 19.108 917.814 24.292ZM921.666 9.748L924.366 4.204H929.766L925.518 9.748H921.666ZM943.086 37H938.298V11.8H943.986L954.03 29.872H954.246V11.8H959.034V37H953.49L943.302 19.072H943.086V37ZM972.77 37.288C966.47 37.288 962.978 32.968 962.978 27.388V11.8H967.73L967.802 27.1C967.802 30.016 969.242 33.004 972.77 33.004C976.406 33.004 977.81 30.016 977.81 27.1V11.8H982.634V27.388C982.634 32.968 979.178 37.288 972.77 37.288ZM985.61 29.62H990.578C990.974 31.636 992.162 33.292 995.51 33.292C998.066 33.292 1000.08 32.248 1000.08 30.052C1000.08 28.36 998.966 27.496 996.842 26.92L992.63 25.768C988.31 24.616 985.97 22.348 985.97 18.712C985.97 13.888 990.074 11.512 995.33 11.512C1001.56 11.512 1004.33 14.824 1004.69 19.072H999.722C999.578 17.416 998.498 15.472 995.258 15.472C992.774 15.472 990.938 16.552 990.938 18.568C990.938 20.476 992.522 21.16 994.214 21.628L998.606 22.852C1003.32 24.112 1004.98 26.524 1004.98 29.692C1004.98 34.48 1001.23 37.252 995.438 37.252C988.67 37.252 986.042 33.94 985.61 29.62ZM1017.92 37H1013.13V15.796H1006.07V11.8H1024.97V15.796H1017.92V37ZM1023.13 37L1031.88 11.8H1038.11L1046.75 37H1041.56L1039.4 30.124H1030.51L1028.35 37H1023.13ZM1034.83 16.516L1031.73 26.308H1038.21L1035.15 16.516H1034.83Z" fill="#123BF3"/>
<path d="M680.584 366.88C680.733 367.883 681.192 368.672 681.96 369.248C682.728 369.824 683.731 370.112 684.968 370.112C686.013 370.112 686.899 369.867 687.624 369.376C688.371 368.885 688.744 368.213 688.744 367.36C688.744 366.699 688.563 366.187 688.2 365.824C687.837 365.461 687.251 365.195 686.44 365.024L682.344 364.192C681.768 364.064 681.235 363.904 680.744 363.712C680.253 363.499 679.827 363.232 679.464 362.912C679.123 362.592 678.845 362.197 678.632 361.728C678.44 361.259 678.344 360.693 678.344 360.032C678.344 359.328 678.493 358.677 678.792 358.08C679.112 357.461 679.549 356.928 680.104 356.48C680.659 356.032 681.32 355.68 682.088 355.424C682.856 355.147 683.699 355.008 684.616 355.008C686.664 355.008 688.253 355.499 689.384 356.48C690.536 357.44 691.197 358.72 691.368 360.32H688.552C688.424 359.36 688.019 358.613 687.336 358.08C686.675 357.525 685.768 357.248 684.616 357.248C683.592 357.248 682.749 357.493 682.088 357.984C681.448 358.453 681.128 359.072 681.128 359.84C681.128 360.437 681.299 360.885 681.64 361.184C682.003 361.483 682.515 361.696 683.176 361.824L687.432 362.688C688.755 362.965 689.768 363.467 690.472 364.192C691.197 364.917 691.56 365.899 691.56 367.136C691.56 367.925 691.389 368.64 691.048 369.28C690.707 369.92 690.237 370.475 689.64 370.944C689.043 371.392 688.339 371.744 687.528 372C686.739 372.235 685.885 372.352 684.968 372.352C683.901 372.352 682.941 372.224 682.088 371.968C681.235 371.691 680.499 371.307 679.88 370.816C679.261 370.325 678.76 369.749 678.376 369.088C678.013 368.427 677.789 367.691 677.704 366.88H680.584ZM708.789 366.88C708.661 367.691 708.394 368.437 707.989 369.12C707.605 369.781 707.103 370.357 706.485 370.848C705.887 371.317 705.194 371.691 704.405 371.968C703.615 372.224 702.751 372.352 701.813 372.352C700.682 372.352 699.637 372.149 698.677 371.744C697.738 371.317 696.927 370.72 696.245 369.952C695.562 369.184 695.029 368.277 694.645 367.232C694.282 366.165 694.101 364.992 694.101 363.712C694.101 362.453 694.293 361.291 694.677 360.224C695.061 359.157 695.594 358.24 696.277 357.472C696.981 356.704 697.802 356.107 698.741 355.68C699.679 355.232 700.703 355.008 701.813 355.008C702.965 355.008 703.989 355.221 704.885 355.648C705.802 356.075 706.559 356.661 707.157 357.408C707.775 358.133 708.245 358.997 708.565 360C708.885 361.003 709.045 362.08 709.045 363.232C709.045 363.531 709.013 363.883 708.949 364.288H696.789C696.853 365.227 697.023 366.059 697.301 366.784C697.578 367.509 697.941 368.117 698.389 368.608C698.837 369.077 699.349 369.44 699.925 369.696C700.501 369.931 701.13 370.048 701.813 370.048C702.986 370.048 703.946 369.76 704.693 369.184C705.439 368.608 705.93 367.84 706.165 366.88H708.789ZM701.781 357.344C701.077 357.344 700.447 357.472 699.893 357.728C699.338 357.963 698.858 358.293 698.453 358.72C698.047 359.147 697.717 359.659 697.461 360.256C697.205 360.832 697.023 361.472 696.917 362.176H706.261C706.261 361.536 706.165 360.928 705.973 360.352C705.781 359.755 705.493 359.232 705.109 358.784C704.746 358.336 704.277 357.984 703.701 357.728C703.146 357.472 702.506 357.344 701.781 357.344ZM721.343 358.048H720.511C719.786 358.048 719.114 358.187 718.495 358.464C717.876 358.72 717.343 359.083 716.895 359.552C716.447 360.021 716.095 360.587 715.839 361.248C715.583 361.888 715.455 362.603 715.455 363.392V372H712.543V355.36H715.455V358.848C715.882 357.76 716.543 356.885 717.439 356.224C718.356 355.541 719.423 355.2 720.639 355.2H721.343V358.048ZM728.943 372L722.735 355.36H725.711L730.479 368.864L735.215 355.36H738.127L731.919 372H728.943ZM740.664 348.896H743.8V352.032H740.664V348.896ZM743.672 372H740.792V355.36H743.672V372ZM747.192 363.68C747.192 362.4 747.384 361.227 747.768 360.16C748.152 359.093 748.685 358.176 749.368 357.408C750.072 356.64 750.893 356.053 751.832 355.648C752.771 355.221 753.795 355.008 754.904 355.008C755.843 355.008 756.696 355.147 757.464 355.424C758.232 355.68 758.893 356.043 759.448 356.512C760.024 356.981 760.493 357.547 760.856 358.208C761.219 358.848 761.464 359.552 761.592 360.32H758.744C758.531 359.403 758.093 358.677 757.432 358.144C756.771 357.611 755.928 357.344 754.904 357.344C754.179 357.344 753.517 357.493 752.92 357.792C752.323 358.091 751.811 358.517 751.384 359.072C750.957 359.627 750.627 360.299 750.392 361.088C750.157 361.856 750.04 362.72 750.04 363.68C750.04 364.64 750.157 365.515 750.392 366.304C750.627 367.072 750.957 367.733 751.384 368.288C751.811 368.843 752.323 369.269 752.92 369.568C753.517 369.867 754.179 370.016 754.904 370.016C755.928 370.016 756.781 369.749 757.464 369.216C758.147 368.661 758.595 367.883 758.808 366.88H761.624C761.347 368.523 760.611 369.845 759.416 370.848C758.243 371.851 756.717 372.352 754.84 372.352C753.752 372.352 752.739 372.149 751.8 371.744C750.861 371.317 750.051 370.72 749.368 369.952C748.685 369.184 748.152 368.267 747.768 367.2C747.384 366.133 747.192 364.96 747.192 363.68ZM778.551 366.88C778.423 367.691 778.157 368.437 777.751 369.12C777.367 369.781 776.866 370.357 776.247 370.848C775.65 371.317 774.957 371.691 774.167 371.968C773.378 372.224 772.514 372.352 771.575 372.352C770.445 372.352 769.399 372.149 768.439 371.744C767.501 371.317 766.69 370.72 766.007 369.952C765.325 369.184 764.791 368.277 764.407 367.232C764.045 366.165 763.863 364.992 763.863 363.712C763.863 362.453 764.055 361.291 764.439 360.224C764.823 359.157 765.357 358.24 766.039 357.472C766.743 356.704 767.565 356.107 768.503 355.68C769.442 355.232 770.466 355.008 771.575 355.008C772.727 355.008 773.751 355.221 774.647 355.648C775.565 356.075 776.322 356.661 776.919 357.408C777.538 358.133 778.007 358.997 778.327 360C778.647 361.003 778.807 362.08 778.807 363.232C778.807 363.531 778.775 363.883 778.711 364.288H766.551C766.615 365.227 766.786 366.059 767.063 366.784C767.341 367.509 767.703 368.117 768.151 368.608C768.599 369.077 769.111 369.44 769.687 369.696C770.263 369.931 770.893 370.048 771.575 370.048C772.749 370.048 773.709 369.76 774.455 369.184C775.202 368.608 775.693 367.84 775.927 366.88H778.551ZM771.543 357.344C770.839 357.344 770.21 357.472 769.655 357.728C769.101 357.963 768.621 358.293 768.215 358.72C767.81 359.147 767.479 359.659 767.223 360.256C766.967 360.832 766.786 361.472 766.679 362.176H776.023C776.023 361.536 775.927 360.928 775.735 360.352C775.543 359.755 775.255 359.232 774.871 358.784C774.509 358.336 774.039 357.984 773.463 357.728C772.909 357.472 772.269 357.344 771.543 357.344ZM800.796 368.096C801.266 368.096 801.714 367.947 802.14 367.648C802.588 367.349 802.983 366.933 803.324 366.4C803.666 365.845 803.932 365.195 804.124 364.448C804.316 363.68 804.412 362.837 804.412 361.92C804.412 360.555 804.167 359.349 803.676 358.304C803.186 357.237 802.514 356.352 801.66 355.648C800.807 354.923 799.815 354.379 798.684 354.016C797.575 353.653 796.391 353.472 795.132 353.472C793.66 353.472 792.252 353.728 790.908 354.24C789.564 354.752 788.38 355.477 787.356 356.416C786.332 357.355 785.522 358.485 784.924 359.808C784.327 361.131 784.028 362.603 784.028 364.224C784.028 365.717 784.284 367.083 784.796 368.32C785.33 369.536 786.044 370.581 786.94 371.456C787.858 372.331 788.946 373.003 790.204 373.472C791.463 373.963 792.828 374.208 794.3 374.208C795.644 374.208 796.818 374.037 797.82 373.696C798.844 373.355 799.698 372.875 800.38 372.256H803.708C803.175 373.024 802.556 373.675 801.852 374.208C801.148 374.741 800.391 375.168 799.58 375.488C798.77 375.829 797.916 376.075 797.02 376.224C796.124 376.395 795.218 376.48 794.3 376.48C792.444 376.48 790.738 376.192 789.18 375.616C787.644 375.04 786.311 374.208 785.18 373.12C784.05 372.053 783.164 370.773 782.524 369.28C781.906 367.765 781.596 366.08 781.596 364.224C781.596 362.325 781.948 360.576 782.652 358.976C783.356 357.376 784.316 356 785.532 354.848C786.748 353.696 788.178 352.8 789.82 352.16C791.463 351.52 793.234 351.2 795.132 351.2C796.775 351.2 798.3 351.445 799.708 351.936C801.138 352.427 802.375 353.131 803.42 354.048C804.487 354.965 805.319 356.085 805.916 357.408C806.535 358.709 806.844 360.192 806.844 361.856C806.844 363.115 806.674 364.256 806.332 365.28C806.012 366.283 805.564 367.147 804.988 367.872C804.412 368.597 803.74 369.163 802.972 369.568C802.226 369.952 801.426 370.144 800.572 370.144C799.612 370.144 798.834 369.909 798.236 369.44C797.66 368.949 797.298 368.32 797.148 367.552C796.786 368.299 796.252 368.917 795.548 369.408C794.844 369.899 793.98 370.144 792.956 370.144C792.252 370.144 791.602 370.027 791.004 369.792C790.428 369.536 789.927 369.173 789.5 368.704C789.074 368.213 788.743 367.616 788.508 366.912C788.274 366.208 788.156 365.408 788.156 364.512C788.156 363.488 788.316 362.549 788.636 361.696C788.956 360.821 789.394 360.075 789.948 359.456C790.503 358.816 791.143 358.325 791.868 357.984C792.615 357.621 793.415 357.44 794.268 357.44C795.314 357.44 796.146 357.675 796.764 358.144C797.383 358.613 797.799 359.147 798.012 359.744L798.396 357.632H800.924L799.42 365.504C799.271 366.251 799.303 366.869 799.516 367.36C799.73 367.851 800.156 368.096 800.796 368.096ZM797.404 362.976C797.49 362.464 797.479 361.995 797.372 361.568C797.266 361.141 797.084 360.779 796.828 360.48C796.594 360.16 796.284 359.915 795.9 359.744C795.516 359.573 795.1 359.488 794.652 359.488C794.055 359.488 793.511 359.627 793.02 359.904C792.53 360.16 792.114 360.523 791.772 360.992C791.431 361.44 791.164 361.973 790.972 362.592C790.78 363.189 790.684 363.819 790.684 364.48C790.684 365.717 790.972 366.635 791.548 367.232C792.124 367.808 792.807 368.096 793.596 368.096C794.492 368.096 795.25 367.755 795.868 367.072C796.508 366.368 796.924 365.536 797.116 364.576L797.404 362.976ZM811.954 366.88C812.103 367.883 812.562 368.672 813.33 369.248C814.098 369.824 815.101 370.112 816.338 370.112C817.383 370.112 818.269 369.867 818.994 369.376C819.741 368.885 820.114 368.213 820.114 367.36C820.114 366.699 819.933 366.187 819.57 365.824C819.207 365.461 818.621 365.195 817.81 365.024L813.714 364.192C813.138 364.064 812.605 363.904 812.114 363.712C811.623 363.499 811.197 363.232 810.834 362.912C810.493 362.592 810.215 362.197 810.002 361.728C809.81 361.259 809.714 360.693 809.714 360.032C809.714 359.328 809.863 358.677 810.162 358.08C810.482 357.461 810.919 356.928 811.474 356.48C812.029 356.032 812.69 355.68 813.458 355.424C814.226 355.147 815.069 355.008 815.986 355.008C818.034 355.008 819.623 355.499 820.754 356.48C821.906 357.44 822.567 358.72 822.738 360.32H819.922C819.794 359.36 819.389 358.613 818.706 358.08C818.045 357.525 817.138 357.248 815.986 357.248C814.962 357.248 814.119 357.493 813.458 357.984C812.818 358.453 812.498 359.072 812.498 359.84C812.498 360.437 812.669 360.885 813.01 361.184C813.373 361.483 813.885 361.696 814.546 361.824L818.802 362.688C820.125 362.965 821.138 363.467 821.842 364.192C822.567 364.917 822.93 365.899 822.93 367.136C822.93 367.925 822.759 368.64 822.418 369.28C822.077 369.92 821.607 370.475 821.01 370.944C820.413 371.392 819.709 371.744 818.898 372C818.109 372.235 817.255 372.352 816.338 372.352C815.271 372.352 814.311 372.224 813.458 371.968C812.605 371.691 811.869 371.307 811.25 370.816C810.631 370.325 810.13 369.749 809.746 369.088C809.383 368.427 809.159 367.691 809.074 366.88H811.954ZM826.239 348.896H829.375V352.032H826.239V348.896ZM829.247 372H826.367V355.36H829.247V372ZM833.663 355.36H836.543V358.048C836.756 357.664 837.023 357.291 837.343 356.928C837.684 356.544 838.079 356.213 838.527 355.936C838.975 355.659 839.466 355.435 839.999 355.264C840.554 355.093 841.151 355.008 841.791 355.008C842.687 355.008 843.487 355.168 844.191 355.488C844.916 355.787 845.514 356.213 845.983 356.768C846.474 357.301 846.847 357.952 847.103 358.72C847.359 359.488 847.487 360.32 847.487 361.216V372H844.607V361.792C844.607 360.533 844.298 359.488 843.679 358.656C843.082 357.824 842.132 357.408 840.831 357.408C840.276 357.408 839.743 357.515 839.231 357.728C838.719 357.941 838.26 358.251 837.855 358.656C837.45 359.061 837.13 359.563 836.895 360.16C836.66 360.736 836.543 361.397 836.543 362.144V372H833.663V355.36ZM852.357 357.696H849.861V355.36H852.357V351.2H855.173V355.36H859.109V357.696H855.173V367.584C855.173 368.331 855.333 368.853 855.653 369.152C855.995 369.451 856.507 369.6 857.189 369.6H859.109V372H856.485C855.227 372 854.224 371.68 853.477 371.04C852.731 370.4 852.357 369.365 852.357 367.936V357.696ZM875.922 366.88C875.794 367.691 875.528 368.437 875.122 369.12C874.738 369.781 874.237 370.357 873.618 370.848C873.021 371.317 872.328 371.691 871.538 371.968C870.749 372.224 869.885 372.352 868.946 372.352C867.816 372.352 866.77 372.149 865.81 371.744C864.872 371.317 864.061 370.72 863.378 369.952C862.696 369.184 862.162 368.277 861.778 367.232C861.416 366.165 861.234 364.992 861.234 363.712C861.234 362.453 861.426 361.291 861.81 360.224C862.194 359.157 862.728 358.24 863.41 357.472C864.114 356.704 864.936 356.107 865.874 355.68C866.813 355.232 867.837 355.008 868.946 355.008C870.098 355.008 871.122 355.221 872.018 355.648C872.936 356.075 873.693 356.661 874.29 357.408C874.909 358.133 875.378 358.997 875.698 360C876.018 361.003 876.178 362.08 876.178 363.232C876.178 363.531 876.146 363.883 876.082 364.288H863.922C863.986 365.227 864.157 366.059 864.434 366.784C864.712 367.509 865.074 368.117 865.522 368.608C865.97 369.077 866.482 369.44 867.058 369.696C867.634 369.931 868.264 370.048 868.946 370.048C870.12 370.048 871.08 369.76 871.826 369.184C872.573 368.608 873.064 367.84 873.298 366.88H875.922ZM868.914 357.344C868.21 357.344 867.581 357.472 867.026 357.728C866.472 357.963 865.992 358.293 865.586 358.72C865.181 359.147 864.85 359.659 864.594 360.256C864.338 360.832 864.157 361.472 864.05 362.176H873.394C873.394 361.536 873.298 360.928 873.106 360.352C872.914 359.755 872.626 359.232 872.242 358.784C871.88 358.336 871.41 357.984 870.834 357.728C870.28 357.472 869.64 357.344 868.914 357.344ZM882.525 363.168L890.141 355.36H893.757L886.877 362.144L894.045 372H890.685L884.893 364.096L882.525 366.432V372H879.677V348.64H882.525V363.168ZM896.086 368.48H899.638V372H896.086V368.48ZM903.423 348.896H906.559V352.032H903.423V348.896ZM906.431 372H903.551V355.36H906.431V372ZM912.543 366.88C912.692 367.883 913.151 368.672 913.919 369.248C914.687 369.824 915.689 370.112 916.927 370.112C917.972 370.112 918.857 369.867 919.583 369.376C920.329 368.885 920.703 368.213 920.703 367.36C920.703 366.699 920.521 366.187 920.159 365.824C919.796 365.461 919.209 365.195 918.399 365.024L914.303 364.192C913.727 364.064 913.193 363.904 912.703 363.712C912.212 363.499 911.785 363.232 911.423 362.912C911.081 362.592 910.804 362.197 910.591 361.728C910.399 361.259 910.303 360.693 910.303 360.032C910.303 359.328 910.452 358.677 910.751 358.08C911.071 357.461 911.508 356.928 912.063 356.48C912.617 356.032 913.279 355.68 914.047 355.424C914.815 355.147 915.657 355.008 916.575 355.008C918.623 355.008 920.212 355.499 921.343 356.48C922.495 357.44 923.156 358.72 923.327 360.32H920.511C920.383 359.36 919.977 358.613 919.295 358.08C918.633 357.525 917.727 357.248 916.575 357.248C915.551 357.248 914.708 357.493 914.047 357.984C913.407 358.453 913.087 359.072 913.087 359.84C913.087 360.437 913.257 360.885 913.599 361.184C913.961 361.483 914.473 361.696 915.135 361.824L919.391 362.688C920.713 362.965 921.727 363.467 922.431 364.192C923.156 364.917 923.519 365.899 923.519 367.136C923.519 367.925 923.348 368.64 923.007 369.28C922.665 369.92 922.196 370.475 921.599 370.944C921.001 371.392 920.297 371.744 919.487 372C918.697 372.235 917.844 372.352 916.927 372.352C915.86 372.352 914.9 372.224 914.047 371.968C913.193 371.691 912.457 371.307 911.839 370.816C911.22 370.325 910.719 369.749 910.335 369.088C909.972 368.427 909.748 367.691 909.663 366.88H912.543Z" fill="black"/>
<path d="M687.336 399.816C686.248 399.816 685.277 400.083 684.424 400.616C683.571 401.149 682.856 401.896 682.28 402.856C681.725 403.795 681.32 404.915 681.064 406.216C680.829 407.517 680.765 408.925 680.872 410.44C681.021 409.779 681.277 409.16 681.64 408.584C682.024 407.987 682.493 407.475 683.048 407.048C683.624 406.6 684.275 406.248 685 405.992C685.725 405.736 686.525 405.608 687.4 405.608C688.531 405.608 689.565 405.811 690.504 406.216C691.443 406.6 692.253 407.133 692.936 407.816C693.619 408.499 694.152 409.32 694.536 410.28C694.92 411.24 695.112 412.275 695.112 413.384C695.112 414.515 694.909 415.571 694.504 416.552C694.099 417.512 693.533 418.355 692.808 419.08C692.104 419.784 691.24 420.339 690.216 420.744C689.213 421.149 688.104 421.352 686.888 421.352C685.544 421.352 684.317 421.085 683.208 420.552C682.12 419.997 681.181 419.219 680.392 418.216C679.624 417.192 679.027 415.965 678.6 414.536C678.195 413.107 677.992 411.496 677.992 409.704C677.992 407.848 678.216 406.163 678.664 404.648C679.133 403.112 679.773 401.8 680.584 400.712C681.416 399.624 682.408 398.781 683.56 398.184C684.712 397.587 685.981 397.288 687.368 397.288C689.373 397.288 691.037 397.811 692.36 398.856C693.683 399.88 694.525 401.299 694.888 403.112H691.976C691.635 402.045 691.069 401.235 690.28 400.68C689.512 400.104 688.531 399.816 687.336 399.816ZM692.232 413.416C692.232 412.648 692.104 411.933 691.848 411.272C691.592 410.611 691.229 410.045 690.76 409.576C690.291 409.085 689.725 408.701 689.064 408.424C688.403 408.147 687.667 408.008 686.856 408.008C686.045 408.008 685.309 408.147 684.648 408.424C684.008 408.701 683.443 409.085 682.952 409.576C682.483 410.045 682.12 410.611 681.864 411.272C681.608 411.933 681.48 412.648 681.48 413.416C681.48 414.184 681.608 414.909 681.864 415.592C682.12 416.253 682.483 416.829 682.952 417.32C683.443 417.789 684.008 418.163 684.648 418.44C685.309 418.717 686.045 418.856 686.856 418.856C687.667 418.856 688.403 418.717 689.064 418.44C689.725 418.163 690.291 417.789 690.76 417.32C691.229 416.829 691.592 416.253 691.848 415.592C692.104 414.909 692.232 414.184 692.232 413.416ZM705.281 418.824C706.369 418.824 707.339 418.557 708.193 418.024C709.046 417.491 709.75 416.755 710.305 415.816C710.881 414.856 711.286 413.725 711.521 412.424C711.777 411.123 711.851 409.715 711.745 408.2C711.595 408.861 711.329 409.491 710.945 410.088C710.582 410.664 710.113 411.176 709.537 411.624C708.982 412.051 708.342 412.392 707.617 412.648C706.891 412.904 706.091 413.032 705.217 413.032C704.086 413.032 703.051 412.84 702.113 412.456C701.174 412.051 700.363 411.507 699.681 410.824C698.998 410.141 698.465 409.331 698.081 408.392C697.718 407.432 697.537 406.387 697.537 405.256C697.537 404.125 697.729 403.08 698.113 402.12C698.518 401.139 699.083 400.296 699.809 399.592C700.534 398.867 701.398 398.301 702.401 397.896C703.403 397.491 704.513 397.288 705.729 397.288C707.073 397.288 708.289 397.565 709.377 398.12C710.486 398.653 711.425 399.432 712.193 400.456C712.982 401.459 713.59 402.675 714.017 404.104C714.443 405.533 714.657 407.144 714.657 408.936C714.657 410.792 714.422 412.488 713.953 414.024C713.505 415.539 712.865 416.84 712.033 417.928C711.201 419.016 710.209 419.859 709.057 420.456C707.905 421.053 706.635 421.352 705.249 421.352C703.243 421.352 701.579 420.84 700.257 419.816C698.955 418.771 698.123 417.341 697.761 415.528H700.673C700.993 416.595 701.547 417.416 702.337 417.992C703.126 418.547 704.107 418.824 705.281 418.824ZM700.417 405.224C700.417 405.992 700.545 406.707 700.801 407.368C701.057 408.029 701.419 408.605 701.889 409.096C702.358 409.565 702.913 409.939 703.553 410.216C704.214 410.493 704.95 410.632 705.761 410.632C706.571 410.632 707.307 410.493 707.969 410.216C708.63 409.939 709.195 409.565 709.665 409.096C710.155 408.605 710.529 408.029 710.785 407.368C711.041 406.707 711.169 405.992 711.169 405.224C711.169 404.456 711.041 403.741 710.785 403.08C710.529 402.397 710.155 401.821 709.665 401.352C709.195 400.861 708.63 400.477 707.969 400.2C707.307 399.923 706.571 399.784 705.761 399.784C704.95 399.784 704.214 399.923 703.553 400.2C702.913 400.477 702.358 400.861 701.889 401.352C701.419 401.821 701.057 402.397 700.801 403.08C700.545 403.741 700.417 404.456 700.417 405.224ZM725.69 397.32C726.778 397.32 727.792 397.48 728.73 397.8C729.69 398.099 730.512 398.525 731.194 399.08C731.898 399.635 732.442 400.307 732.826 401.096C733.232 401.885 733.434 402.76 733.434 403.72C733.434 404.403 733.328 405.021 733.114 405.576C732.901 406.131 732.613 406.632 732.25 407.08C731.909 407.507 731.493 407.88 731.002 408.2C730.533 408.52 730.042 408.776 729.53 408.968C730.106 409.096 730.672 409.32 731.226 409.64C731.802 409.96 732.314 410.365 732.762 410.856C733.232 411.347 733.605 411.912 733.882 412.552C734.181 413.192 734.33 413.896 734.33 414.664C734.33 415.645 734.117 416.552 733.69 417.384C733.264 418.195 732.666 418.899 731.898 419.496C731.152 420.072 730.245 420.531 729.178 420.872C728.133 421.192 726.97 421.352 725.69 421.352C724.432 421.352 723.269 421.192 722.202 420.872C721.157 420.531 720.25 420.072 719.482 419.496C718.736 418.899 718.149 418.195 717.722 417.384C717.296 416.552 717.082 415.645 717.082 414.664C717.082 413.896 717.221 413.192 717.498 412.552C717.797 411.912 718.17 411.347 718.618 410.856C719.088 410.365 719.61 409.96 720.186 409.64C720.762 409.32 721.338 409.096 721.914 408.968C721.381 408.776 720.88 408.52 720.41 408.2C719.941 407.88 719.525 407.507 719.162 407.08C718.8 406.632 718.512 406.131 718.298 405.576C718.085 405.021 717.978 404.403 717.978 403.72C717.978 402.76 718.17 401.885 718.554 401.096C718.96 400.307 719.504 399.635 720.186 399.08C720.89 398.525 721.712 398.099 722.65 397.8C723.589 397.48 724.602 397.32 725.69 397.32ZM725.69 407.848C726.373 407.848 727.013 407.763 727.61 407.592C728.208 407.4 728.73 407.133 729.178 406.792C729.626 406.429 729.978 406.003 730.234 405.512C730.49 405 730.618 404.413 730.618 403.752C730.618 403.091 730.49 402.504 730.234 401.992C729.978 401.48 729.626 401.053 729.178 400.712C728.73 400.349 728.208 400.083 727.61 399.912C727.013 399.72 726.373 399.624 725.69 399.624C725.029 399.624 724.4 399.72 723.802 399.912C723.226 400.083 722.714 400.349 722.266 400.712C721.818 401.053 721.466 401.48 721.21 401.992C720.954 402.504 720.826 403.091 720.826 403.752C720.826 404.413 720.954 405 721.21 405.512C721.466 406.003 721.818 406.429 722.266 406.792C722.714 407.133 723.226 407.4 723.802 407.592C724.4 407.763 725.029 407.848 725.69 407.848ZM725.69 418.984C726.544 418.984 727.312 418.877 727.994 418.664C728.698 418.451 729.296 418.152 729.786 417.768C730.277 417.384 730.65 416.925 730.906 416.392C731.184 415.837 731.322 415.219 731.322 414.536C731.322 413.192 730.81 412.125 729.786 411.336C728.762 410.525 727.397 410.12 725.69 410.12C723.984 410.12 722.618 410.525 721.594 411.336C720.57 412.125 720.058 413.192 720.058 414.536C720.058 415.219 720.186 415.837 720.442 416.392C720.72 416.925 721.104 417.384 721.594 417.768C722.085 418.152 722.672 418.451 723.354 418.664C724.058 418.877 724.837 418.984 725.69 418.984ZM743.293 400.264V397.64H759.741V400.232C758.333 401.747 757.16 403.315 756.221 404.936C755.282 406.536 754.525 408.189 753.949 409.896C753.394 411.603 753 413.384 752.765 415.24C752.53 417.075 752.413 418.995 752.413 421H749.309C749.309 412.424 751.677 405.512 756.413 400.264H743.293ZM761.457 400.584C762.395 400.584 763.195 400.541 763.857 400.456C764.518 400.371 765.062 400.221 765.489 400.008C765.937 399.773 766.278 399.475 766.513 399.112C766.747 398.728 766.907 398.237 766.993 397.64H769.297V421H766.353V402.664H761.457V400.584ZM781.375 397.32C782.463 397.32 783.477 397.48 784.415 397.8C785.375 398.099 786.197 398.525 786.879 399.08C787.583 399.635 788.127 400.307 788.511 401.096C788.917 401.885 789.119 402.76 789.119 403.72C789.119 404.403 789.013 405.021 788.799 405.576C788.586 406.131 788.298 406.632 787.935 407.08C787.594 407.507 787.178 407.88 786.687 408.2C786.218 408.52 785.727 408.776 785.215 408.968C785.791 409.096 786.357 409.32 786.911 409.64C787.487 409.96 787.999 410.365 788.447 410.856C788.917 411.347 789.29 411.912 789.567 412.552C789.866 413.192 790.015 413.896 790.015 414.664C790.015 415.645 789.802 416.552 789.375 417.384C788.949 418.195 788.351 418.899 787.583 419.496C786.837 420.072 785.93 420.531 784.863 420.872C783.818 421.192 782.655 421.352 781.375 421.352C780.117 421.352 778.954 421.192 777.887 420.872C776.842 420.531 775.935 420.072 775.167 419.496C774.421 418.899 773.834 418.195 773.407 417.384C772.981 416.552 772.767 415.645 772.767 414.664C772.767 413.896 772.906 413.192 773.183 412.552C773.482 411.912 773.855 411.347 774.303 410.856C774.773 410.365 775.295 409.96 775.871 409.64C776.447 409.32 777.023 409.096 777.599 408.968C777.066 408.776 776.565 408.52 776.095 408.2C775.626 407.88 775.21 407.507 774.847 407.08C774.485 406.632 774.197 406.131 773.983 405.576C773.77 405.021 773.663 404.403 773.663 403.72C773.663 402.76 773.855 401.885 774.239 401.096C774.645 400.307 775.189 399.635 775.871 399.08C776.575 398.525 777.397 398.099 778.335 397.8C779.274 397.48 780.287 397.32 781.375 397.32ZM781.375 407.848C782.058 407.848 782.698 407.763 783.295 407.592C783.893 407.4 784.415 407.133 784.863 406.792C785.311 406.429 785.663 406.003 785.919 405.512C786.175 405 786.303 404.413 786.303 403.752C786.303 403.091 786.175 402.504 785.919 401.992C785.663 401.48 785.311 401.053 784.863 400.712C784.415 400.349 783.893 400.083 783.295 399.912C782.698 399.72 782.058 399.624 781.375 399.624C780.714 399.624 780.085 399.72 779.487 399.912C778.911 400.083 778.399 400.349 777.951 400.712C777.503 401.053 777.151 401.48 776.895 401.992C776.639 402.504 776.511 403.091 776.511 403.752C776.511 404.413 776.639 405 776.895 405.512C777.151 406.003 777.503 406.429 777.951 406.792C778.399 407.133 778.911 407.4 779.487 407.592C780.085 407.763 780.714 407.848 781.375 407.848ZM781.375 418.984C782.229 418.984 782.997 418.877 783.679 418.664C784.383 418.451 784.981 418.152 785.471 417.768C785.962 417.384 786.335 416.925 786.591 416.392C786.869 415.837 787.007 415.219 787.007 414.536C787.007 413.192 786.495 412.125 785.471 411.336C784.447 410.525 783.082 410.12 781.375 410.12C779.669 410.12 778.303 410.525 777.279 411.336C776.255 412.125 775.743 413.192 775.743 414.536C775.743 415.219 775.871 415.837 776.127 416.392C776.405 416.925 776.789 417.384 777.279 417.768C777.77 418.152 778.357 418.451 779.039 418.664C779.743 418.877 780.522 418.984 781.375 418.984ZM800.152 418.824C801.24 418.824 802.211 418.557 803.064 418.024C803.917 417.491 804.621 416.755 805.176 415.816C805.752 414.856 806.157 413.725 806.392 412.424C806.648 411.123 806.723 409.715 806.616 408.2C806.467 408.861 806.2 409.491 805.816 410.088C805.453 410.664 804.984 411.176 804.408 411.624C803.853 412.051 803.213 412.392 802.488 412.648C801.763 412.904 800.963 413.032 800.088 413.032C798.957 413.032 797.923 412.84 796.984 412.456C796.045 412.051 795.235 411.507 794.552 410.824C793.869 410.141 793.336 409.331 792.952 408.392C792.589 407.432 792.408 406.387 792.408 405.256C792.408 404.125 792.6 403.08 792.984 402.12C793.389 401.139 793.955 400.296 794.68 399.592C795.405 398.867 796.269 398.301 797.272 397.896C798.275 397.491 799.384 397.288 800.6 397.288C801.944 397.288 803.16 397.565 804.248 398.12C805.357 398.653 806.296 399.432 807.064 400.456C807.853 401.459 808.461 402.675 808.888 404.104C809.315 405.533 809.528 407.144 809.528 408.936C809.528 410.792 809.293 412.488 808.824 414.024C808.376 415.539 807.736 416.84 806.904 417.928C806.072 419.016 805.08 419.859 803.928 420.456C802.776 421.053 801.507 421.352 800.12 421.352C798.115 421.352 796.451 420.84 795.128 419.816C793.827 418.771 792.995 417.341 792.632 415.528H795.544C795.864 416.595 796.419 417.416 797.208 417.992C797.997 418.547 798.979 418.824 800.152 418.824ZM795.288 405.224C795.288 405.992 795.416 406.707 795.672 407.368C795.928 408.029 796.291 408.605 796.76 409.096C797.229 409.565 797.784 409.939 798.424 410.216C799.085 410.493 799.821 410.632 800.632 410.632C801.443 410.632 802.179 410.493 802.84 410.216C803.501 409.939 804.067 409.565 804.536 409.096C805.027 408.605 805.4 408.029 805.656 407.368C805.912 406.707 806.04 405.992 806.04 405.224C806.04 404.456 805.912 403.741 805.656 403.08C805.4 402.397 805.027 401.821 804.536 401.352C804.067 400.861 803.501 400.477 802.84 400.2C802.179 399.923 801.443 399.784 800.632 399.784C799.821 399.784 799.085 399.923 798.424 400.2C797.784 400.477 797.229 400.861 796.76 401.352C796.291 401.821 795.928 402.397 795.672 403.08C795.416 403.741 795.288 404.456 795.288 405.224Z" fill="black"/>
<defs>
<clipPath id="clip0_5_86">
<rect width="608" height="567" fill="white"/>
</clipPath>
</defs>
</svg>
