<svg width="189" height="50" viewBox="0 0 189 50" fill="none" xmlns="http://www.w3.org/2000/svg">
<path d="M171.693 35.3324V35.4806H171.841H177.309H177.457V35.3324V27.7703H188H188.148V27.6221V23.1107V22.9625H188H177.457V19.4857H188H188.148V19.3376V14.8262V14.678H188H171.841H171.693V14.8262V35.3324Z" fill="black" stroke="black" stroke-width="0.296374"/>
<path d="M164.111 35.3836L164.147 35.4796H164.25H169.937H170.157L170.074 35.2756L163.321 18.68C163.321 18.6799 163.321 18.6797 163.321 18.6796C162.804 17.3887 162.128 16.3488 161.29 15.5656C160.453 14.7488 159.301 14.3489 157.852 14.3489C156.455 14.3489 155.338 14.7502 154.521 15.568L154.519 15.5692C153.737 16.3699 153.081 17.4264 152.547 18.7335C152.547 18.7336 152.547 18.7336 152.547 18.7337L145.739 35.275L145.655 35.4796H145.876H151.399H151.501L151.537 35.3843L153.142 31.187H162.534L164.111 35.3836ZM157.525 19.8273L157.526 19.826C157.576 19.6903 157.633 19.5868 157.694 19.5111C157.736 19.4587 157.792 19.4301 157.879 19.4301C157.934 19.4301 157.969 19.4403 157.993 19.453C158.014 19.4648 158.032 19.4825 158.047 19.5122L158.054 19.5262L158.064 19.5385C158.127 19.6168 158.184 19.7132 158.234 19.8295L160.809 26.6526H154.896L157.525 19.8273Z" fill="black" stroke="black" stroke-width="0.296374"/>
<path d="M131.17 35.4806H131.318V35.3324V27.4835L138.607 35.4326L138.651 35.4806H138.716H145.114H145.449L145.224 35.2328L137.875 27.1414C138.963 27.1397 139.963 27.0571 140.875 26.893L140.875 26.893L140.878 26.8925C141.804 26.7073 142.589 26.4005 143.228 25.9682C143.889 25.5338 144.398 24.9482 144.755 24.2146L144.756 24.2133C145.115 23.4585 145.29 22.5238 145.29 21.4155V20.1305C145.29 19.0736 145.086 18.1889 144.668 17.4854C144.255 16.7719 143.7 16.207 143.004 15.7929C142.329 15.3809 141.527 15.093 140.602 14.9264C139.681 14.7607 138.715 14.678 137.705 14.678H120.507H120.359V14.8262V19.3376V19.4857H120.507H137.841C138.583 19.4857 139.042 19.6148 139.271 19.8287L139.271 19.8289L139.279 19.8353C139.393 19.9278 139.49 20.0851 139.558 20.3277C139.626 20.5698 139.662 20.8854 139.662 21.2788V21.4155C139.662 21.8369 139.626 22.1737 139.558 22.43C139.489 22.6877 139.391 22.85 139.279 22.941L139.279 22.941L139.276 22.944C139.046 23.143 138.585 23.2633 137.841 23.2633H127.643C127.15 23.2633 126.721 23.4324 126.366 23.7685C126.004 24.1102 125.827 24.5614 125.827 25.1066V35.3324V35.4806H125.975H131.17Z" fill="black" stroke="black" stroke-width="0.296374"/>
<path d="M115.563 35.3324V35.4806H115.711H121.18H121.328V35.3324V19.4857H128.972H129.12V19.3376V14.8262V14.678H128.972H107.919H107.771V14.8262V19.3376V19.4857H107.919H115.563V35.3324Z" fill="black" stroke="black" stroke-width="0.296374"/>
<path d="M94.7669 35.3324V35.4806H94.915H110.801H110.949V35.3324V30.8211V30.6729H110.801H100.532V14.8262V14.678H100.383H94.915H94.7669V14.8262V35.3324Z" fill="black" stroke="black" stroke-width="0.296374"/>
<path d="M76.2893 35.3324V35.4806H76.4375H92.323H92.4712V35.3324V30.8211V30.6729H92.323H82.054V14.8262V14.678H81.9058H76.4375H76.2893V14.8262V35.3324Z" fill="black" stroke="black" stroke-width="0.296374"/>
<path d="M68.7076 35.3836L68.7437 35.4796H68.8463H74.5333H74.7536L74.6706 35.2756L67.9175 18.68C67.9174 18.6798 67.9174 18.6795 67.9173 18.6793C67.4009 17.3885 66.725 16.3487 65.8864 15.5656C65.0498 14.7488 63.8972 14.3489 62.4483 14.3489C61.0517 14.3489 59.935 14.7502 59.1172 15.568L59.116 15.5692C58.334 16.3698 57.6776 17.4263 57.1437 18.7334C57.1436 18.7335 57.1436 18.7336 57.1436 18.7337L50.3356 35.275L50.2514 35.4796H50.4727H55.9957H56.0977L56.1341 35.3843L57.7382 31.187H67.1305L68.7076 35.3836ZM62.1218 19.8273L62.1223 19.826C62.1732 19.6903 62.2301 19.5868 62.2906 19.5111C62.3325 19.4587 62.3883 19.4301 62.4757 19.4301C62.5305 19.4301 62.5661 19.4403 62.5893 19.453C62.6109 19.4648 62.6291 19.4825 62.6439 19.5122L62.6509 19.5262L62.6607 19.5385C62.7234 19.6168 62.7803 19.7132 62.8303 19.8295L65.4056 26.6526H59.4926L62.1218 19.8273Z" fill="black" stroke="black" stroke-width="0.296374"/>
<rect width="38.0787" height="49.5455" fill="black"/>
<g clip-path="url(#clip0_91_2)">
<path d="M26.3719 10.7705H13.9638L6.24707 25.486H18.6523L26.3719 10.7705Z" fill="#FF902F"/>
<path d="M18.6535 25.4854L11.1406 39.9291L31.818 25.4854H18.6535Z" fill="#FF902F"/>
</g>
<defs>
<clipPath id="clip0_91_2">
<rect width="25.5697" height="29.1592" fill="white" transform="translate(6.24902 10.7705)"/>
</clipPath>
</defs>
</svg>
