<svg width="223" height="354" viewBox="0 0 223 354" fill="none" xmlns="http://www.w3.org/2000/svg">
<g clip-path="url(#clip0_7_175)">
<path d="M222.896 157.27L172.301 207.864H0V50.7256L50.7256 0H222.896V157.27Z" fill="#123BF3"/>
<path d="M135.308 185.528V157.585H141.495V168.882H142.812L150.436 157.585H157.981L148.121 171.117L158.46 185.528H150.756L142.892 173.952H141.495V185.528H135.308Z" fill="white"/>
<path d="M97.9338 185.528H91.7466V162.655H83.9229V157.585H105.758V162.655H97.9338V185.528Z" fill="white"/>
<path d="M63.9406 185.528H57.7534V157.585H64.9385L75.0775 176.347H75.317V157.585H81.5042V185.528H74.5586L64.1801 167.006H63.9406V185.528Z" fill="white"/>
<path d="M54.3476 185.528H38.2104V180.458H43.2253V162.655H38.2104V157.585H54.3875V162.655H49.3327V180.458H54.3476V185.528Z" fill="white"/>
<path d="M14.145 177.265H20.5717C20.931 179.341 22.2881 180.738 25.4416 180.738C27.9963 180.738 29.9922 179.86 29.9922 177.744C29.9922 176.147 28.8745 175.229 26.7589 174.71L21.9289 173.433C16.9392 172.076 14.4644 169.401 14.4644 165.45C14.4644 159.941 19.0948 157.266 25.2819 157.266C32.4271 157.266 35.6604 161.138 36.0596 165.729H29.593C29.4333 164.132 28.4354 162.336 25.2021 162.336C22.6873 162.336 20.931 163.374 20.931 165.25C20.931 167.046 22.4478 167.725 24.1643 168.204L29.1539 169.561C34.6226 170.998 36.339 173.792 36.339 177.265C36.339 182.734 32.028 185.807 25.3618 185.807C17.4182 185.807 14.5442 182.015 14.145 177.265Z" fill="white"/>
<path fill-rule="evenodd" clip-rule="evenodd" d="M119.585 157.119C122.564 157.119 125.706 157.988 128.104 160.157C130.505 162.329 132.143 165.789 132.143 170.933V172.993H112.853C113.01 175.547 113.773 177.524 114.953 178.868C116.154 180.235 117.794 180.958 119.695 180.958C122.793 180.957 124.828 179.03 125.62 176.771H131.855C130.599 182.156 126.154 185.897 119.695 185.897C115.914 185.897 112.648 184.557 110.328 182.071C108.008 179.585 106.646 175.965 106.646 171.425C106.646 166.94 107.994 163.361 110.293 160.903C112.593 158.444 115.832 157.119 119.585 157.119ZM119.695 181.103C119.788 181.103 119.881 181.101 119.972 181.097C119.881 181.101 119.788 181.103 119.695 181.103ZM120.18 181.086C120.201 181.084 120.221 181.083 120.242 181.082C120.221 181.083 120.201 181.084 120.18 181.086ZM120.422 181.066C120.459 181.062 120.496 181.059 120.533 181.054C120.496 181.059 120.459 181.062 120.422 181.066ZM120.69 181.034C120.727 181.029 120.763 181.023 120.799 181.017C120.763 181.023 120.727 181.029 120.69 181.034ZM120.964 180.99C120.991 180.985 121.018 180.98 121.045 180.974C121.018 180.98 120.992 180.985 120.964 180.99ZM121.215 180.939C121.269 180.927 121.322 180.914 121.375 180.901C121.322 180.914 121.269 180.927 121.215 180.939ZM112.78 173.834C112.761 173.671 112.744 173.505 112.73 173.338C112.716 173.176 112.705 173.013 112.697 172.847H112.696C112.713 173.186 112.742 173.514 112.78 173.834ZM112.804 168.347C112.784 168.479 112.766 168.612 112.75 168.747H112.751C112.767 168.612 112.784 168.479 112.804 168.347ZM119.531 162.058C117.79 162.058 116.255 162.673 115.095 163.813C113.964 164.925 113.182 166.545 112.917 168.6H125.887C125.83 166.596 125.139 164.977 124.034 163.852C122.902 162.7 121.326 162.058 119.531 162.058ZM124.35 163.978C124.285 163.905 124.219 163.835 124.151 163.765C124.219 163.835 124.286 163.905 124.35 163.978ZM124.109 163.723C124.054 163.668 123.999 163.615 123.942 163.562C123.999 163.615 124.054 163.668 124.109 163.723ZM123.897 163.52C123.826 163.456 123.754 163.393 123.68 163.332C123.754 163.392 123.826 163.456 123.897 163.52ZM123.156 162.947C123.079 162.897 123.002 162.847 122.922 162.8C123.002 162.847 123.079 162.897 123.156 162.947ZM123.424 163.133C123.357 163.084 123.289 163.036 123.22 162.99C123.289 163.036 123.357 163.084 123.424 163.133Z" fill="white"/>
</g>
<path d="M36.8468 273H34.0308L30.4788 261.8H32.8148L35.3748 270.712H35.5028L38.0948 261.8H40.4148L36.8468 273ZM47.752 273H41.16V271.224H43.416V263.576H41.176V261.8H47.752V263.576H45.512V271.224H47.752V273ZM53.6076 273H49.6076V268.168H48.5676V266.568H49.6076V261.8H53.6076C56.2956 261.8 58.5516 263.48 58.5516 267.352C58.5516 271.288 56.2796 273 53.6076 273ZM51.7356 271.16H53.4316C55.1756 271.16 56.3116 269.72 56.3116 267.352C56.3116 265 55.2076 263.64 53.4316 263.64H51.7356V266.568H53.9276V268.168H51.7356V271.16ZM68.9201 273H66.7921V268.28H62.1681V273H60.0401V261.8H62.1681V266.504H66.7921V261.8H68.9201V273ZM69.9803 273L73.8683 261.8H76.6363L80.4763 273H78.1723L77.2123 269.944H73.2603L72.3003 273H69.9803ZM75.1803 263.896L73.8043 268.248H76.6843L75.3243 263.896H75.1803ZM88.0437 273H81.5317V261.8H83.6757V271.224H88.0437V273ZM93.1313 273H89.1313V261.8H93.1313C95.8193 261.8 98.0753 263.48 98.0753 267.352C98.0753 271.288 95.8033 273 93.1313 273ZM91.2593 271.16H92.9553C94.6993 271.16 95.8353 269.72 95.8353 267.352C95.8353 265 94.7313 263.64 92.9553 263.64H91.2593V271.16ZM112.183 268.392H110.663C110.423 268.968 110.167 269.592 109.831 270.184L112.535 273H110.151L108.839 271.624C108.055 272.504 106.983 273.128 105.495 273.128C103.351 273.128 101.815 271.896 101.783 270.024C101.767 268.552 102.775 267.528 104.231 266.76L103.943 266.472C103.431 265.944 102.999 265.288 102.999 264.44C102.999 263 104.151 261.688 106.087 261.688C107.751 261.688 109.079 262.648 109.079 264.168C109.079 265.432 108.167 266.344 106.871 267.096L108.711 269.016C109.079 268.328 109.351 267.56 109.607 266.776H112.183V268.392ZM103.719 269.88C103.735 270.856 104.535 271.464 105.607 271.464C106.455 271.464 107.159 271.08 107.735 270.456L105.271 267.88C104.295 268.408 103.719 269.096 103.719 269.88ZM104.839 264.36C104.839 264.936 105.239 265.384 105.831 266.008C106.839 265.448 107.255 264.872 107.255 264.28C107.239 263.592 106.775 263.208 106.087 263.208C105.303 263.208 104.839 263.736 104.839 264.36ZM116.774 273V261.8H118.902V263.576H121.67C123.958 263.576 125.11 265.24 125.11 267.272C125.11 268.952 124.326 271.016 121.59 271.016H118.902V273H116.774ZM118.902 265.352V269.24H121.206C122.278 269.24 122.95 268.536 122.95 267.272C122.95 266.264 122.502 265.352 121.174 265.352H118.902ZM129.665 273.128C127.377 273.128 126.065 271.656 125.969 269.704H128.049C128.113 270.552 128.577 271.304 129.617 271.304C130.705 271.304 131.185 270.52 131.185 269.352V261.8H133.313V269.368C133.313 271.736 131.889 273.128 129.665 273.128ZM139.699 273.128C136.915 273.128 134.787 271.16 134.787 267.352C134.787 263.592 136.915 261.672 139.699 261.672C142.531 261.672 144.627 263.592 144.627 267.352C144.627 271.128 142.531 273.128 139.699 273.128ZM137.011 267.352C137.011 269.656 137.987 271.288 139.699 271.288C141.427 271.288 142.419 269.656 142.419 267.352C142.419 265.048 141.427 263.512 139.699 263.512C137.987 263.512 137.011 265.048 137.011 267.352ZM138.723 260.888L139.923 258.424H142.323L140.435 260.888H138.723ZM148.243 273H146.115V261.8H148.643L153.107 269.832H153.203V261.8H155.331V273H152.867L148.339 265.032H148.243V273ZM161.436 273.128C158.636 273.128 157.084 271.208 157.084 268.728V261.8H159.196L159.228 268.6C159.228 269.896 159.868 271.224 161.436 271.224C163.052 271.224 163.676 269.896 163.676 268.6V261.8H165.82V268.728C165.82 271.208 164.284 273.128 161.436 273.128ZM167.143 269.72H169.351C169.527 270.616 170.055 271.352 171.543 271.352C172.679 271.352 173.575 270.888 173.575 269.912C173.575 269.16 173.079 268.776 172.135 268.52L170.263 268.008C168.343 267.496 167.303 266.488 167.303 264.872C167.303 262.728 169.127 261.672 171.463 261.672C174.231 261.672 175.463 263.144 175.623 265.032H173.415C173.351 264.296 172.871 263.432 171.431 263.432C170.327 263.432 169.511 263.912 169.511 264.808C169.511 265.656 170.215 265.96 170.967 266.168L172.919 266.712C175.015 267.272 175.751 268.344 175.751 269.752C175.751 271.88 174.087 273.112 171.511 273.112C168.503 273.112 167.335 271.64 167.143 269.72ZM181.502 273H179.374V263.576H176.238V261.8H184.638V263.576H181.502V273ZM183.818 273L187.706 261.8H190.474L194.314 273H192.01L191.05 269.944H187.098L186.138 273H183.818ZM189.018 263.896L187.642 268.248H190.522L189.162 263.896H189.018Z" fill="#123BF3"/>
<path d="M37.3139 311.8C37.4073 312.427 37.6939 312.92 38.1739 313.28C38.6539 313.64 39.2806 313.82 40.0539 313.82C40.7073 313.82 41.2606 313.667 41.7139 313.36C42.1806 313.053 42.4139 312.633 42.4139 312.1C42.4139 311.687 42.3006 311.367 42.0739 311.14C41.8473 310.913 41.4806 310.747 40.9739 310.64L38.4139 310.12C38.0539 310.04 37.7206 309.94 37.4139 309.82C37.1073 309.687 36.8406 309.52 36.6139 309.32C36.4006 309.12 36.2273 308.873 36.0939 308.58C35.9739 308.287 35.9139 307.933 35.9139 307.52C35.9139 307.08 36.0073 306.673 36.1939 306.3C36.3939 305.913 36.6673 305.58 37.0139 305.3C37.3606 305.02 37.7739 304.8 38.2539 304.64C38.7339 304.467 39.2606 304.38 39.8339 304.38C41.1139 304.38 42.1073 304.687 42.8139 305.3C43.5339 305.9 43.9473 306.7 44.0539 307.7H42.2939C42.2139 307.1 41.9606 306.633 41.5339 306.3C41.1206 305.953 40.5539 305.78 39.8339 305.78C39.1939 305.78 38.6673 305.933 38.2539 306.24C37.8539 306.533 37.6539 306.92 37.6539 307.4C37.6539 307.773 37.7606 308.053 37.9739 308.24C38.2006 308.427 38.5206 308.56 38.9339 308.64L41.5939 309.18C42.4206 309.353 43.0539 309.667 43.4939 310.12C43.9473 310.573 44.1739 311.187 44.1739 311.96C44.1739 312.453 44.0673 312.9 43.8539 313.3C43.6406 313.7 43.3473 314.047 42.9739 314.34C42.6006 314.62 42.1606 314.84 41.6539 315C41.1606 315.147 40.6273 315.22 40.0539 315.22C39.3873 315.22 38.7873 315.14 38.2539 314.98C37.7206 314.807 37.2606 314.567 36.8739 314.26C36.4873 313.953 36.1739 313.593 35.9339 313.18C35.7073 312.767 35.5673 312.307 35.5139 311.8H37.3139ZM54.9419 311.8C54.8619 312.307 54.6952 312.773 54.4419 313.2C54.2019 313.613 53.8886 313.973 53.5019 314.28C53.1286 314.573 52.6952 314.807 52.2019 314.98C51.7086 315.14 51.1686 315.22 50.5819 315.22C49.8752 315.22 49.2219 315.093 48.6219 314.84C48.0352 314.573 47.5286 314.2 47.1019 313.72C46.6752 313.24 46.3419 312.673 46.1019 312.02C45.8752 311.353 45.7619 310.62 45.7619 309.82C45.7619 309.033 45.8819 308.307 46.1219 307.64C46.3619 306.973 46.6952 306.4 47.1219 305.92C47.5619 305.44 48.0752 305.067 48.6619 304.8C49.2486 304.52 49.8886 304.38 50.5819 304.38C51.3019 304.38 51.9419 304.513 52.5019 304.78C53.0752 305.047 53.5486 305.413 53.9219 305.88C54.3086 306.333 54.6019 306.873 54.8019 307.5C55.0019 308.127 55.1019 308.8 55.1019 309.52C55.1019 309.707 55.0819 309.927 55.0419 310.18H47.4419C47.4819 310.767 47.5886 311.287 47.7619 311.74C47.9352 312.193 48.1619 312.573 48.4419 312.88C48.7219 313.173 49.0419 313.4 49.4019 313.56C49.7619 313.707 50.1552 313.78 50.5819 313.78C51.3152 313.78 51.9152 313.6 52.3819 313.24C52.8486 312.88 53.1552 312.4 53.3019 311.8H54.9419ZM50.5619 305.84C50.1219 305.84 49.7286 305.92 49.3819 306.08C49.0352 306.227 48.7352 306.433 48.4819 306.7C48.2286 306.967 48.0219 307.287 47.8619 307.66C47.7019 308.02 47.5886 308.42 47.5219 308.86H53.3619C53.3619 308.46 53.3019 308.08 53.1819 307.72C53.0619 307.347 52.8819 307.02 52.6419 306.74C52.4152 306.46 52.1219 306.24 51.7619 306.08C51.4152 305.92 51.0152 305.84 50.5619 305.84ZM62.7883 306.28H62.2683C61.815 306.28 61.395 306.367 61.0083 306.54C60.6216 306.7 60.2883 306.927 60.0083 307.22C59.7283 307.513 59.5083 307.867 59.3483 308.28C59.1883 308.68 59.1083 309.127 59.1083 309.62V315H57.2883V304.6H59.1083V306.78C59.375 306.1 59.7883 305.553 60.3483 305.14C60.9216 304.713 61.5883 304.5 62.3483 304.5H62.7883V306.28ZM67.5386 315L63.6586 304.6H65.5186L68.4986 313.04L71.4586 304.6H73.2786L69.3986 315H67.5386ZM74.8638 300.56H76.8238V302.52H74.8638V300.56ZM76.7438 315H74.9438V304.6H76.7438V315ZM78.9439 309.8C78.9439 309 79.0639 308.267 79.3039 307.6C79.5439 306.933 79.8773 306.36 80.3039 305.88C80.7439 305.4 81.2573 305.033 81.8439 304.78C82.4306 304.513 83.0706 304.38 83.7639 304.38C84.3506 304.38 84.8839 304.467 85.3639 304.64C85.8439 304.8 86.2573 305.027 86.6039 305.32C86.9639 305.613 87.2573 305.967 87.4839 306.38C87.7106 306.78 87.8639 307.22 87.9439 307.7H86.1639C86.0306 307.127 85.7573 306.673 85.3439 306.34C84.9306 306.007 84.4039 305.84 83.7639 305.84C83.3106 305.84 82.8973 305.933 82.5239 306.12C82.1506 306.307 81.8306 306.573 81.5639 306.92C81.2973 307.267 81.0906 307.687 80.9439 308.18C80.7973 308.66 80.7239 309.2 80.7239 309.8C80.7239 310.4 80.7973 310.947 80.9439 311.44C81.0906 311.92 81.2973 312.333 81.5639 312.68C81.8306 313.027 82.1506 313.293 82.5239 313.48C82.8973 313.667 83.3106 313.76 83.7639 313.76C84.4039 313.76 84.9373 313.593 85.3639 313.26C85.7906 312.913 86.0706 312.427 86.2039 311.8H87.9639C87.7906 312.827 87.3306 313.653 86.5839 314.28C85.8506 314.907 84.8973 315.22 83.7239 315.22C83.0439 315.22 82.4106 315.093 81.8239 314.84C81.2373 314.573 80.7306 314.2 80.3039 313.72C79.8773 313.24 79.5439 312.667 79.3039 312C79.0639 311.333 78.9439 310.6 78.9439 309.8ZM98.5435 311.8C98.4635 312.307 98.2968 312.773 98.0435 313.2C97.8035 313.613 97.4901 313.973 97.1035 314.28C96.7301 314.573 96.2968 314.807 95.8035 314.98C95.3101 315.14 94.7701 315.22 94.1835 315.22C93.4768 315.22 92.8235 315.093 92.2235 314.84C91.6368 314.573 91.1301 314.2 90.7035 313.72C90.2768 313.24 89.9435 312.673 89.7035 312.02C89.4768 311.353 89.3635 310.62 89.3635 309.82C89.3635 309.033 89.4835 308.307 89.7235 307.64C89.9635 306.973 90.2968 306.4 90.7235 305.92C91.1635 305.44 91.6768 305.067 92.2635 304.8C92.8501 304.52 93.4901 304.38 94.1835 304.38C94.9035 304.38 95.5435 304.513 96.1035 304.78C96.6768 305.047 97.1501 305.413 97.5235 305.88C97.9101 306.333 98.2035 306.873 98.4035 307.5C98.6035 308.127 98.7035 308.8 98.7035 309.52C98.7035 309.707 98.6835 309.927 98.6435 310.18H91.0435C91.0835 310.767 91.1901 311.287 91.3635 311.74C91.5368 312.193 91.7635 312.573 92.0435 312.88C92.3235 313.173 92.6435 313.4 93.0035 313.56C93.3635 313.707 93.7568 313.78 94.1835 313.78C94.9168 313.78 95.5168 313.6 95.9835 313.24C96.4501 312.88 96.7568 312.4 96.9035 311.8H98.5435ZM94.1635 305.84C93.7235 305.84 93.3301 305.92 92.9835 306.08C92.6368 306.227 92.3368 306.433 92.0835 306.7C91.8301 306.967 91.6235 307.287 91.4635 307.66C91.3035 308.02 91.1901 308.42 91.1235 308.86H96.9635C96.9635 308.46 96.9035 308.08 96.7835 307.72C96.6635 307.347 96.4835 307.02 96.2435 306.74C96.0168 306.46 95.7235 306.24 95.3635 306.08C95.0168 305.92 94.6168 305.84 94.1635 305.84ZM112.447 312.56C112.74 312.56 113.02 312.467 113.287 312.28C113.567 312.093 113.813 311.833 114.027 311.5C114.24 311.153 114.407 310.747 114.527 310.28C114.647 309.8 114.707 309.273 114.707 308.7C114.707 307.847 114.553 307.093 114.247 306.44C113.94 305.773 113.52 305.22 112.987 304.78C112.453 304.327 111.833 303.987 111.127 303.76C110.433 303.533 109.693 303.42 108.907 303.42C107.987 303.42 107.107 303.58 106.267 303.9C105.427 304.22 104.687 304.673 104.047 305.26C103.407 305.847 102.9 306.553 102.527 307.38C102.153 308.207 101.967 309.127 101.967 310.14C101.967 311.073 102.127 311.927 102.447 312.7C102.78 313.46 103.227 314.113 103.787 314.66C104.36 315.207 105.04 315.627 105.827 315.92C106.613 316.227 107.467 316.38 108.387 316.38C109.227 316.38 109.96 316.273 110.587 316.06C111.227 315.847 111.76 315.547 112.187 315.16H114.267C113.933 315.64 113.547 316.047 113.107 316.38C112.667 316.713 112.193 316.98 111.687 317.18C111.18 317.393 110.647 317.547 110.087 317.64C109.527 317.747 108.96 317.8 108.387 317.8C107.227 317.8 106.16 317.62 105.187 317.26C104.227 316.9 103.393 316.38 102.687 315.7C101.98 315.033 101.427 314.233 101.027 313.3C100.64 312.353 100.447 311.3 100.447 310.14C100.447 308.953 100.667 307.86 101.107 306.86C101.547 305.86 102.147 305 102.907 304.28C103.667 303.56 104.56 303 105.587 302.6C106.613 302.2 107.72 302 108.907 302C109.933 302 110.887 302.153 111.767 302.46C112.66 302.767 113.433 303.207 114.087 303.78C114.753 304.353 115.273 305.053 115.647 305.88C116.033 306.693 116.227 307.62 116.227 308.66C116.227 309.447 116.12 310.16 115.907 310.8C115.707 311.427 115.427 311.967 115.067 312.42C114.707 312.873 114.287 313.227 113.807 313.48C113.34 313.72 112.84 313.84 112.307 313.84C111.707 313.84 111.22 313.693 110.847 313.4C110.487 313.093 110.26 312.7 110.167 312.22C109.94 312.687 109.607 313.073 109.167 313.38C108.727 313.687 108.187 313.84 107.547 313.84C107.107 313.84 106.7 313.767 106.327 313.62C105.967 313.46 105.653 313.233 105.387 312.94C105.12 312.633 104.913 312.26 104.767 311.82C104.62 311.38 104.547 310.88 104.547 310.32C104.547 309.68 104.647 309.093 104.847 308.56C105.047 308.013 105.32 307.547 105.667 307.16C106.013 306.76 106.413 306.453 106.867 306.24C107.333 306.013 107.833 305.9 108.367 305.9C109.02 305.9 109.54 306.047 109.927 306.34C110.313 306.633 110.573 306.967 110.707 307.34L110.947 306.02H112.527L111.587 310.94C111.493 311.407 111.513 311.793 111.647 312.1C111.78 312.407 112.047 312.56 112.447 312.56ZM110.327 309.36C110.38 309.04 110.373 308.747 110.307 308.48C110.24 308.213 110.127 307.987 109.967 307.8C109.82 307.6 109.627 307.447 109.387 307.34C109.147 307.233 108.887 307.18 108.607 307.18C108.233 307.18 107.893 307.267 107.587 307.44C107.28 307.6 107.02 307.827 106.807 308.12C106.593 308.4 106.427 308.733 106.307 309.12C106.187 309.493 106.127 309.887 106.127 310.3C106.127 311.073 106.307 311.647 106.667 312.02C107.027 312.38 107.453 312.56 107.947 312.56C108.507 312.56 108.98 312.347 109.367 311.92C109.767 311.48 110.027 310.96 110.147 310.36L110.327 309.36ZM119.42 311.8C119.514 312.427 119.8 312.92 120.28 313.28C120.76 313.64 121.387 313.82 122.16 313.82C122.814 313.82 123.367 313.667 123.82 313.36C124.287 313.053 124.52 312.633 124.52 312.1C124.52 311.687 124.407 311.367 124.18 311.14C123.954 310.913 123.587 310.747 123.08 310.64L120.52 310.12C120.16 310.04 119.827 309.94 119.52 309.82C119.214 309.687 118.947 309.52 118.72 309.32C118.507 309.12 118.334 308.873 118.2 308.58C118.08 308.287 118.02 307.933 118.02 307.52C118.02 307.08 118.114 306.673 118.3 306.3C118.5 305.913 118.774 305.58 119.12 305.3C119.467 305.02 119.88 304.8 120.36 304.64C120.84 304.467 121.367 304.38 121.94 304.38C123.22 304.38 124.214 304.687 124.92 305.3C125.64 305.9 126.054 306.7 126.16 307.7H124.4C124.32 307.1 124.067 306.633 123.64 306.3C123.227 305.953 122.66 305.78 121.94 305.78C121.3 305.78 120.774 305.933 120.36 306.24C119.96 306.533 119.76 306.92 119.76 307.4C119.76 307.773 119.867 308.053 120.08 308.24C120.307 308.427 120.627 308.56 121.04 308.64L123.7 309.18C124.527 309.353 125.16 309.667 125.6 310.12C126.054 310.573 126.28 311.187 126.28 311.96C126.28 312.453 126.174 312.9 125.96 313.3C125.747 313.7 125.454 314.047 125.08 314.34C124.707 314.62 124.267 314.84 123.76 315C123.267 315.147 122.734 315.22 122.16 315.22C121.494 315.22 120.894 315.14 120.36 314.98C119.827 314.807 119.367 314.567 118.98 314.26C118.594 313.953 118.28 313.593 118.04 313.18C117.814 312.767 117.674 312.307 117.62 311.8H119.42ZM128.348 300.56H130.308V302.52H128.348V300.56ZM130.228 315H128.428V304.6H130.228V315ZM132.988 304.6H134.788V306.28C134.922 306.04 135.088 305.807 135.288 305.58C135.502 305.34 135.748 305.133 136.028 304.96C136.308 304.787 136.615 304.647 136.948 304.54C137.295 304.433 137.668 304.38 138.068 304.38C138.628 304.38 139.128 304.48 139.568 304.68C140.022 304.867 140.395 305.133 140.688 305.48C140.995 305.813 141.228 306.22 141.388 306.7C141.548 307.18 141.628 307.7 141.628 308.26V315H139.828V308.62C139.828 307.833 139.635 307.18 139.248 306.66C138.875 306.14 138.282 305.88 137.468 305.88C137.122 305.88 136.788 305.947 136.468 306.08C136.148 306.213 135.862 306.407 135.608 306.66C135.355 306.913 135.155 307.227 135.008 307.6C134.862 307.96 134.788 308.373 134.788 308.84V315H132.988V304.6ZM144.672 306.06H143.112V304.6H144.672V302H146.432V304.6H148.892V306.06H146.432V312.24C146.432 312.707 146.532 313.033 146.732 313.22C146.946 313.407 147.266 313.5 147.692 313.5H148.892V315H147.252C146.466 315 145.839 314.8 145.372 314.4C144.906 314 144.672 313.353 144.672 312.46V306.06ZM159.4 311.8C159.32 312.307 159.154 312.773 158.9 313.2C158.66 313.613 158.347 313.973 157.96 314.28C157.587 314.573 157.154 314.807 156.66 314.98C156.167 315.14 155.627 315.22 155.04 315.22C154.334 315.22 153.68 315.093 153.08 314.84C152.494 314.573 151.987 314.2 151.56 313.72C151.134 313.24 150.8 312.673 150.56 312.02C150.334 311.353 150.22 310.62 150.22 309.82C150.22 309.033 150.34 308.307 150.58 307.64C150.82 306.973 151.154 306.4 151.58 305.92C152.02 305.44 152.534 305.067 153.12 304.8C153.707 304.52 154.347 304.38 155.04 304.38C155.76 304.38 156.4 304.513 156.96 304.78C157.534 305.047 158.007 305.413 158.38 305.88C158.767 306.333 159.06 306.873 159.26 307.5C159.46 308.127 159.56 308.8 159.56 309.52C159.56 309.707 159.54 309.927 159.5 310.18H151.9C151.94 310.767 152.047 311.287 152.22 311.74C152.394 312.193 152.62 312.573 152.9 312.88C153.18 313.173 153.5 313.4 153.86 313.56C154.22 313.707 154.614 313.78 155.04 313.78C155.774 313.78 156.374 313.6 156.84 313.24C157.307 312.88 157.614 312.4 157.76 311.8H159.4ZM155.02 305.84C154.58 305.84 154.187 305.92 153.84 306.08C153.494 306.227 153.194 306.433 152.94 306.7C152.687 306.967 152.48 307.287 152.32 307.66C152.16 308.02 152.047 308.42 151.98 308.86H157.82C157.82 308.46 157.76 308.08 157.64 307.72C157.52 307.347 157.34 307.02 157.1 306.74C156.874 306.46 156.58 306.24 156.22 306.08C155.874 305.92 155.474 305.84 155.02 305.84ZM163.527 309.48L168.287 304.6H170.547L166.247 308.84L170.727 315H168.627L165.007 310.06L163.527 311.52V315H161.747V300.4H163.527V309.48ZM172.003 312.8H174.223V315H172.003V312.8ZM176.588 300.56H178.548V302.52H176.588V300.56ZM178.468 315H176.668V304.6H178.468V315ZM182.288 311.8C182.381 312.427 182.668 312.92 183.148 313.28C183.628 313.64 184.255 313.82 185.028 313.82C185.681 313.82 186.235 313.667 186.688 313.36C187.155 313.053 187.388 312.633 187.388 312.1C187.388 311.687 187.275 311.367 187.048 311.14C186.821 310.913 186.455 310.747 185.948 310.64L183.388 310.12C183.028 310.04 182.695 309.94 182.388 309.82C182.081 309.687 181.815 309.52 181.588 309.32C181.375 309.12 181.201 308.873 181.068 308.58C180.948 308.287 180.888 307.933 180.888 307.52C180.888 307.08 180.981 306.673 181.168 306.3C181.368 305.913 181.641 305.58 181.988 305.3C182.335 305.02 182.748 304.8 183.228 304.64C183.708 304.467 184.235 304.38 184.808 304.38C186.088 304.38 187.081 304.687 187.788 305.3C188.508 305.9 188.921 306.7 189.028 307.7H187.268C187.188 307.1 186.935 306.633 186.508 306.3C186.095 305.953 185.528 305.78 184.808 305.78C184.168 305.78 183.641 305.933 183.228 306.24C182.828 306.533 182.628 306.92 182.628 307.4C182.628 307.773 182.735 308.053 182.948 308.24C183.175 308.427 183.495 308.56 183.908 308.64L186.568 309.18C187.395 309.353 188.028 309.667 188.468 310.12C188.921 310.573 189.148 311.187 189.148 311.96C189.148 312.453 189.041 312.9 188.828 313.3C188.615 313.7 188.321 314.047 187.948 314.34C187.575 314.62 187.135 314.84 186.628 315C186.135 315.147 185.601 315.22 185.028 315.22C184.361 315.22 183.761 315.14 183.228 314.98C182.695 314.807 182.235 314.567 181.848 314.26C181.461 313.953 181.148 313.593 180.908 313.18C180.681 312.767 180.541 312.307 180.488 311.8H182.288Z" fill="black"/>
<path d="M76.6328 335.76C75.9528 335.76 75.3461 335.927 74.8128 336.26C74.2794 336.593 73.8328 337.06 73.4728 337.66C73.1261 338.247 72.8728 338.947 72.7128 339.76C72.5661 340.573 72.5261 341.453 72.5928 342.4C72.6861 341.987 72.8461 341.6 73.0728 341.24C73.3128 340.867 73.6061 340.547 73.9528 340.28C74.3128 340 74.7194 339.78 75.1728 339.62C75.6261 339.46 76.1261 339.38 76.6728 339.38C77.3794 339.38 78.0261 339.507 78.6128 339.76C79.1994 340 79.7061 340.333 80.1328 340.76C80.5594 341.187 80.8928 341.7 81.1328 342.3C81.3728 342.9 81.4928 343.547 81.4928 344.24C81.4928 344.947 81.3661 345.607 81.1128 346.22C80.8594 346.82 80.5061 347.347 80.0528 347.8C79.6128 348.24 79.0728 348.587 78.4328 348.84C77.8061 349.093 77.1128 349.22 76.3528 349.22C75.5128 349.22 74.7461 349.053 74.0528 348.72C73.3728 348.373 72.7861 347.887 72.2928 347.26C71.8128 346.62 71.4394 345.853 71.1728 344.96C70.9194 344.067 70.7928 343.06 70.7928 341.94C70.7928 340.78 70.9328 339.727 71.2128 338.78C71.5061 337.82 71.9061 337 72.4128 336.32C72.9328 335.64 73.5528 335.113 74.2728 334.74C74.9928 334.367 75.7861 334.18 76.6528 334.18C77.9061 334.18 78.9461 334.507 79.7728 335.16C80.5994 335.8 81.1261 336.687 81.3528 337.82H79.5328C79.3194 337.153 78.9661 336.647 78.4728 336.3C77.9928 335.94 77.3794 335.76 76.6328 335.76ZM79.6928 344.26C79.6928 343.78 79.6128 343.333 79.4528 342.92C79.2928 342.507 79.0661 342.153 78.7728 341.86C78.4794 341.553 78.1261 341.313 77.7128 341.14C77.2994 340.967 76.8394 340.88 76.3328 340.88C75.8261 340.88 75.3661 340.967 74.9528 341.14C74.5528 341.313 74.1994 341.553 73.8928 341.86C73.5994 342.153 73.3728 342.507 73.2128 342.92C73.0528 343.333 72.9728 343.78 72.9728 344.26C72.9728 344.74 73.0528 345.193 73.2128 345.62C73.3728 346.033 73.5994 346.393 73.8928 346.7C74.1994 346.993 74.5528 347.227 74.9528 347.4C75.3661 347.573 75.8261 347.66 76.3328 347.66C76.8394 347.66 77.2994 347.573 77.7128 347.4C78.1261 347.227 78.4794 346.993 78.7728 346.7C79.0661 346.393 79.2928 346.033 79.4528 345.62C79.6128 345.193 79.6928 344.74 79.6928 344.26ZM87.8482 347.64C88.5282 347.64 89.1349 347.473 89.6682 347.14C90.2016 346.807 90.6416 346.347 90.9882 345.76C91.3482 345.16 91.6016 344.453 91.7482 343.64C91.9082 342.827 91.9549 341.947 91.8882 341C91.7949 341.413 91.6282 341.807 91.3882 342.18C91.1616 342.54 90.8682 342.86 90.5082 343.14C90.1616 343.407 89.7616 343.62 89.3082 343.78C88.8549 343.94 88.3549 344.02 87.8082 344.02C87.1016 344.02 86.4549 343.9 85.8682 343.66C85.2816 343.407 84.7749 343.067 84.3482 342.64C83.9216 342.213 83.5882 341.707 83.3482 341.12C83.1216 340.52 83.0082 339.867 83.0082 339.16C83.0082 338.453 83.1282 337.8 83.3682 337.2C83.6216 336.587 83.9749 336.06 84.4282 335.62C84.8816 335.167 85.4216 334.813 86.0482 334.56C86.6749 334.307 87.3682 334.18 88.1282 334.18C88.9682 334.18 89.7282 334.353 90.4082 334.7C91.1016 335.033 91.6882 335.52 92.1682 336.16C92.6616 336.787 93.0416 337.547 93.3082 338.44C93.5749 339.333 93.7082 340.34 93.7082 341.46C93.7082 342.62 93.5616 343.68 93.2682 344.64C92.9882 345.587 92.5882 346.4 92.0682 347.08C91.5482 347.76 90.9282 348.287 90.2082 348.66C89.4882 349.033 88.6949 349.22 87.8282 349.22C86.5749 349.22 85.5349 348.9 84.7082 348.26C83.8949 347.607 83.3749 346.713 83.1482 345.58H84.9682C85.1682 346.247 85.5149 346.76 86.0082 347.12C86.5016 347.467 87.1149 347.64 87.8482 347.64ZM84.8082 339.14C84.8082 339.62 84.8882 340.067 85.0482 340.48C85.2082 340.893 85.4349 341.253 85.7282 341.56C86.0216 341.853 86.3682 342.087 86.7682 342.26C87.1816 342.433 87.6416 342.52 88.1482 342.52C88.6549 342.52 89.1149 342.433 89.5282 342.26C89.9416 342.087 90.2949 341.853 90.5882 341.56C90.8949 341.253 91.1282 340.893 91.2882 340.48C91.4482 340.067 91.5282 339.62 91.5282 339.14C91.5282 338.66 91.4482 338.213 91.2882 337.8C91.1282 337.373 90.8949 337.013 90.5882 336.72C90.2949 336.413 89.9416 336.173 89.5282 336C89.1149 335.827 88.6549 335.74 88.1482 335.74C87.6416 335.74 87.1816 335.827 86.7682 336C86.3682 336.173 86.0216 336.413 85.7282 336.72C85.4349 337.013 85.2082 337.373 85.0482 337.8C84.8882 338.213 84.8082 338.66 84.8082 339.14ZM100.604 334.2C101.284 334.2 101.917 334.3 102.504 334.5C103.104 334.687 103.617 334.953 104.044 335.3C104.484 335.647 104.824 336.067 105.064 336.56C105.317 337.053 105.444 337.6 105.444 338.2C105.444 338.627 105.377 339.013 105.244 339.36C105.111 339.707 104.931 340.02 104.704 340.3C104.491 340.567 104.231 340.8 103.924 341C103.631 341.2 103.324 341.36 103.004 341.48C103.364 341.56 103.717 341.7 104.064 341.9C104.424 342.1 104.744 342.353 105.024 342.66C105.317 342.967 105.551 343.32 105.724 343.72C105.911 344.12 106.004 344.56 106.004 345.04C106.004 345.653 105.871 346.22 105.604 346.74C105.337 347.247 104.964 347.687 104.484 348.06C104.017 348.42 103.451 348.707 102.784 348.92C102.131 349.12 101.404 349.22 100.604 349.22C99.8175 349.22 99.0908 349.12 98.4242 348.92C97.7708 348.707 97.2042 348.42 96.7242 348.06C96.2575 347.687 95.8908 347.247 95.6242 346.74C95.3575 346.22 95.2242 345.653 95.2242 345.04C95.2242 344.56 95.3108 344.12 95.4842 343.72C95.6708 343.32 95.9042 342.967 96.1842 342.66C96.4775 342.353 96.8042 342.1 97.1642 341.9C97.5242 341.7 97.8842 341.56 98.2442 341.48C97.9108 341.36 97.5975 341.2 97.3042 341C97.0108 340.8 96.7508 340.567 96.5242 340.3C96.2975 340.02 96.1175 339.707 95.9842 339.36C95.8508 339.013 95.7842 338.627 95.7842 338.2C95.7842 337.6 95.9042 337.053 96.1442 336.56C96.3975 336.067 96.7375 335.647 97.1642 335.3C97.6042 334.953 98.1175 334.687 98.7042 334.5C99.2908 334.3 99.9242 334.2 100.604 334.2ZM100.604 340.78C101.031 340.78 101.431 340.727 101.804 340.62C102.177 340.5 102.504 340.333 102.784 340.12C103.064 339.893 103.284 339.627 103.444 339.32C103.604 339 103.684 338.633 103.684 338.22C103.684 337.807 103.604 337.44 103.444 337.12C103.284 336.8 103.064 336.533 102.784 336.32C102.504 336.093 102.177 335.927 101.804 335.82C101.431 335.7 101.031 335.64 100.604 335.64C100.191 335.64 99.7975 335.7 99.4242 335.82C99.0642 335.927 98.7442 336.093 98.4642 336.32C98.1842 336.533 97.9642 336.8 97.8042 337.12C97.6442 337.44 97.5642 337.807 97.5642 338.22C97.5642 338.633 97.6442 339 97.8042 339.32C97.9642 339.627 98.1842 339.893 98.4642 340.12C98.7442 340.333 99.0642 340.5 99.4242 340.62C99.7975 340.727 100.191 340.78 100.604 340.78ZM100.604 347.74C101.137 347.74 101.617 347.673 102.044 347.54C102.484 347.407 102.857 347.22 103.164 346.98C103.471 346.74 103.704 346.453 103.864 346.12C104.037 345.773 104.124 345.387 104.124 344.96C104.124 344.12 103.804 343.453 103.164 342.96C102.524 342.453 101.671 342.2 100.604 342.2C99.5375 342.2 98.6842 342.453 98.0442 342.96C97.4042 343.453 97.0842 344.12 97.0842 344.96C97.0842 345.387 97.1642 345.773 97.3242 346.12C97.4975 346.453 97.7375 346.74 98.0442 346.98C98.3508 347.22 98.7175 347.407 99.1442 347.54C99.5842 347.673 100.071 347.74 100.604 347.74ZM111.606 336.04V334.4H121.886V336.02C121.006 336.967 120.273 337.947 119.686 338.96C119.099 339.96 118.626 340.993 118.266 342.06C117.919 343.127 117.673 344.24 117.526 345.4C117.379 346.547 117.306 347.747 117.306 349H115.366C115.366 343.64 116.846 339.32 119.806 336.04H111.606ZM122.958 336.24C123.545 336.24 124.045 336.213 124.458 336.16C124.872 336.107 125.212 336.013 125.478 335.88C125.758 335.733 125.972 335.547 126.118 335.32C126.265 335.08 126.365 334.773 126.418 334.4H127.858V349H126.018V337.54H122.958V336.24ZM135.407 334.2C136.087 334.2 136.721 334.3 137.307 334.5C137.907 334.687 138.421 334.953 138.847 335.3C139.287 335.647 139.627 336.067 139.867 336.56C140.121 337.053 140.247 337.6 140.247 338.2C140.247 338.627 140.181 339.013 140.047 339.36C139.914 339.707 139.734 340.02 139.507 340.3C139.294 340.567 139.034 340.8 138.727 341C138.434 341.2 138.127 341.36 137.807 341.48C138.167 341.56 138.521 341.7 138.867 341.9C139.227 342.1 139.547 342.353 139.827 342.66C140.121 342.967 140.354 343.32 140.527 343.72C140.714 344.12 140.807 344.56 140.807 345.04C140.807 345.653 140.674 346.22 140.407 346.74C140.141 347.247 139.767 347.687 139.287 348.06C138.821 348.42 138.254 348.707 137.587 348.92C136.934 349.12 136.207 349.22 135.407 349.22C134.621 349.22 133.894 349.12 133.227 348.92C132.574 348.707 132.007 348.42 131.527 348.06C131.061 347.687 130.694 347.247 130.427 346.74C130.161 346.22 130.027 345.653 130.027 345.04C130.027 344.56 130.114 344.12 130.287 343.72C130.474 343.32 130.707 342.967 130.987 342.66C131.281 342.353 131.607 342.1 131.967 341.9C132.327 341.7 132.687 341.56 133.047 341.48C132.714 341.36 132.401 341.2 132.107 341C131.814 340.8 131.554 340.567 131.327 340.3C131.101 340.02 130.921 339.707 130.787 339.36C130.654 339.013 130.587 338.627 130.587 338.2C130.587 337.6 130.707 337.053 130.947 336.56C131.201 336.067 131.541 335.647 131.967 335.3C132.407 334.953 132.921 334.687 133.507 334.5C134.094 334.3 134.727 334.2 135.407 334.2ZM135.407 340.78C135.834 340.78 136.234 340.727 136.607 340.62C136.981 340.5 137.307 340.333 137.587 340.12C137.867 339.893 138.087 339.627 138.247 339.32C138.407 339 138.487 338.633 138.487 338.22C138.487 337.807 138.407 337.44 138.247 337.12C138.087 336.8 137.867 336.533 137.587 336.32C137.307 336.093 136.981 335.927 136.607 335.82C136.234 335.7 135.834 335.64 135.407 335.64C134.994 335.64 134.601 335.7 134.227 335.82C133.867 335.927 133.547 336.093 133.267 336.32C132.987 336.533 132.767 336.8 132.607 337.12C132.447 337.44 132.367 337.807 132.367 338.22C132.367 338.633 132.447 339 132.607 339.32C132.767 339.627 132.987 339.893 133.267 340.12C133.547 340.333 133.867 340.5 134.227 340.62C134.601 340.727 134.994 340.78 135.407 340.78ZM135.407 347.74C135.941 347.74 136.421 347.673 136.847 347.54C137.287 347.407 137.661 347.22 137.967 346.98C138.274 346.74 138.507 346.453 138.667 346.12C138.841 345.773 138.927 345.387 138.927 344.96C138.927 344.12 138.607 343.453 137.967 342.96C137.327 342.453 136.474 342.2 135.407 342.2C134.341 342.2 133.487 342.453 132.847 342.96C132.207 343.453 131.887 344.12 131.887 344.96C131.887 345.387 131.967 345.773 132.127 346.12C132.301 346.453 132.541 346.74 132.847 346.98C133.154 347.22 133.521 347.407 133.947 347.54C134.387 347.673 134.874 347.74 135.407 347.74ZM147.143 347.64C147.823 347.64 148.429 347.473 148.963 347.14C149.496 346.807 149.936 346.347 150.283 345.76C150.643 345.16 150.896 344.453 151.043 343.64C151.203 342.827 151.249 341.947 151.183 341C151.089 341.413 150.923 341.807 150.683 342.18C150.456 342.54 150.163 342.86 149.803 343.14C149.456 343.407 149.056 343.62 148.603 343.78C148.149 343.94 147.649 344.02 147.103 344.02C146.396 344.02 145.749 343.9 145.163 343.66C144.576 343.407 144.069 343.067 143.643 342.64C143.216 342.213 142.883 341.707 142.643 341.12C142.416 340.52 142.303 339.867 142.303 339.16C142.303 338.453 142.423 337.8 142.663 337.2C142.916 336.587 143.269 336.06 143.723 335.62C144.176 335.167 144.716 334.813 145.343 334.56C145.969 334.307 146.663 334.18 147.423 334.18C148.263 334.18 149.023 334.353 149.703 334.7C150.396 335.033 150.983 335.52 151.463 336.16C151.956 336.787 152.336 337.547 152.603 338.44C152.869 339.333 153.003 340.34 153.003 341.46C153.003 342.62 152.856 343.68 152.563 344.64C152.283 345.587 151.883 346.4 151.363 347.08C150.843 347.76 150.223 348.287 149.503 348.66C148.783 349.033 147.989 349.22 147.123 349.22C145.869 349.22 144.829 348.9 144.003 348.26C143.189 347.607 142.669 346.713 142.443 345.58H144.263C144.463 346.247 144.809 346.76 145.303 347.12C145.796 347.467 146.409 347.64 147.143 347.64ZM144.103 339.14C144.103 339.62 144.183 340.067 144.343 340.48C144.503 340.893 144.729 341.253 145.023 341.56C145.316 341.853 145.663 342.087 146.063 342.26C146.476 342.433 146.936 342.52 147.443 342.52C147.949 342.52 148.409 342.433 148.823 342.26C149.236 342.087 149.589 341.853 149.883 341.56C150.189 341.253 150.423 340.893 150.583 340.48C150.743 340.067 150.823 339.62 150.823 339.14C150.823 338.66 150.743 338.213 150.583 337.8C150.423 337.373 150.189 337.013 149.883 336.72C149.589 336.413 149.236 336.173 148.823 336C148.409 335.827 147.949 335.74 147.443 335.74C146.936 335.74 146.476 335.827 146.063 336C145.663 336.173 145.316 336.413 145.023 336.72C144.729 337.013 144.503 337.373 144.343 337.8C144.183 338.213 144.103 338.66 144.103 339.14Z" fill="black"/>
<defs>
<clipPath id="clip0_7_175">
<rect width="222.895" height="207.864" fill="white"/>
</clipPath>
</defs>
</svg>
