<svg width="223" height="354" viewBox="0 0 223 354" fill="none" xmlns="http://www.w3.org/2000/svg">
<g clip-path="url(#clip0_7_175)">
<path d="M222.896 157.27L172.301 207.864H0V50.7256L50.7256 0H222.896V157.27Z" fill="#123BF3"/>
<path d="M135.308 185.528V157.585H141.495V168.882H142.812L150.436 157.585H157.981L148.121 171.117L158.46 185.528H150.756L142.892 173.952H141.495V185.528H135.308Z" fill="white"/>
<path d="M97.9338 185.528H91.7466V162.655H83.9229V157.585H105.758V162.655H97.9338V185.528Z" fill="white"/>
<path d="M63.9406 185.528H57.7534V157.585H64.9385L75.0775 176.347H75.317V157.585H81.5042V185.528H74.5586L64.1801 167.006H63.9406V185.528Z" fill="white"/>
<path d="M54.3476 185.528H38.2104V180.458H43.2253V162.655H38.2104V157.585H54.3875V162.655H49.3327V180.458H54.3476V185.528Z" fill="white"/>
<path d="M14.145 177.265H20.5717C20.931 179.341 22.2881 180.738 25.4416 180.738C27.9963 180.738 29.9922 179.86 29.9922 177.744C29.9922 176.147 28.8745 175.229 26.7589 174.71L21.9289 173.433C16.9392 172.076 14.4644 169.401 14.4644 165.45C14.4644 159.941 19.0948 157.266 25.2819 157.266C32.4271 157.266 35.6604 161.138 36.0596 165.729H29.593C29.4333 164.132 28.4354 162.336 25.2021 162.336C22.6873 162.336 20.931 163.374 20.931 165.25C20.931 167.046 22.4478 167.725 24.1643 168.204L29.1539 169.561C34.6226 170.998 36.339 173.792 36.339 177.265C36.339 182.734 32.028 185.807 25.3618 185.807C17.4182 185.807 14.5442 182.015 14.145 177.265Z" fill="white"/>
<path fill-rule="evenodd" clip-rule="evenodd" d="M119.585 157.119C122.564 157.119 125.706 157.988 128.104 160.157C130.505 162.329 132.143 165.789 132.143 170.933V172.993H112.853C113.01 175.547 113.773 177.524 114.953 178.868C116.154 180.235 117.794 180.958 119.695 180.958C122.793 180.957 124.828 179.03 125.62 176.771H131.855C130.599 182.156 126.154 185.897 119.695 185.897C115.914 185.897 112.648 184.557 110.328 182.071C108.008 179.585 106.646 175.965 106.646 171.425C106.646 166.94 107.994 163.361 110.293 160.903C112.593 158.444 115.832 157.119 119.585 157.119ZM119.695 181.103C119.788 181.103 119.881 181.101 119.972 181.097C119.881 181.101 119.788 181.103 119.695 181.103ZM120.18 181.086C120.201 181.084 120.221 181.083 120.242 181.082C120.221 181.083 120.201 181.084 120.18 181.086ZM120.422 181.066C120.459 181.062 120.496 181.059 120.533 181.054C120.496 181.059 120.459 181.062 120.422 181.066ZM120.69 181.034C120.727 181.029 120.763 181.023 120.799 181.017C120.763 181.023 120.727 181.029 120.69 181.034ZM120.964 180.99C120.991 180.985 121.018 180.98 121.045 180.974C121.018 180.98 120.992 180.985 120.964 180.99ZM121.215 180.939C121.269 180.927 121.322 180.914 121.375 180.901C121.322 180.914 121.269 180.927 121.215 180.939ZM112.78 173.834C112.761 173.671 112.744 173.505 112.73 173.338C112.716 173.176 112.705 173.013 112.697 172.847H112.696C112.713 173.186 112.742 173.514 112.78 173.834ZM112.804 168.347C112.784 168.479 112.766 168.612 112.75 168.747H112.751C112.767 168.612 112.784 168.479 112.804 168.347ZM119.531 162.058C117.79 162.058 116.255 162.673 115.095 163.813C113.964 164.925 113.182 166.545 112.917 168.6H125.887C125.83 166.596 125.139 164.977 124.034 163.852C122.902 162.7 121.326 162.058 119.531 162.058ZM124.35 163.978C124.285 163.905 124.219 163.835 124.151 163.765C124.219 163.835 124.286 163.905 124.35 163.978ZM124.109 163.723C124.054 163.668 123.999 163.615 123.942 163.562C123.999 163.615 124.054 163.668 124.109 163.723ZM123.897 163.52C123.826 163.456 123.754 163.393 123.68 163.332C123.754 163.392 123.826 163.456 123.897 163.52ZM123.156 162.947C123.079 162.897 123.002 162.847 122.922 162.8C123.002 162.847 123.079 162.897 123.156 162.947ZM123.424 163.133C123.357 163.084 123.289 163.036 123.22 162.99C123.289 163.036 123.357 163.084 123.424 163.133Z" fill="white"/>
</g>
<path d="M6.864 273H4.048L0.496 261.8H2.832L5.392 270.712H5.52L8.112 261.8H10.432L6.864 273ZM17.7691 273H11.1771V271.224H13.4331V263.576H11.1931V261.8H17.7691V263.576H15.5291V271.224H17.7691V273ZM23.6248 273H19.6248V268.168H18.5848V266.568H19.6248V261.8H23.6248C26.3128 261.8 28.5688 263.48 28.5688 267.352C28.5688 271.288 26.2968 273 23.6248 273ZM21.7528 271.16H23.4488C25.1928 271.16 26.3288 269.72 26.3288 267.352C26.3288 265 25.2248 263.64 23.4488 263.64H21.7528V266.568H23.9448V268.168H21.7528V271.16ZM38.9373 273H36.8092V268.28H32.1852V273H30.0572V261.8H32.1852V266.504H36.8092V261.8H38.9373V273ZM39.9975 273L43.8855 261.8H46.6535L50.4935 273H48.1895L47.2295 269.944H43.2775L42.3175 273H39.9975ZM45.1975 263.896L43.8215 268.248H46.7015L45.3415 263.896H45.1975ZM58.0609 273H51.5489V261.8H53.6929V271.224H58.0609V273ZM63.1485 273H59.1485V261.8H63.1485C65.8365 261.8 68.0925 263.48 68.0925 267.352C68.0925 271.288 65.8205 273 63.1485 273ZM61.2765 271.16H62.9725C64.7165 271.16 65.8525 269.72 65.8525 267.352C65.8525 265 64.7485 263.64 62.9725 263.64H61.2765V271.16ZM82.2 268.392H80.68C80.44 268.968 80.184 269.592 79.848 270.184L82.552 273H80.168L78.856 271.624C78.072 272.504 77 273.128 75.512 273.128C73.368 273.128 71.832 271.896 71.8 270.024C71.784 268.552 72.792 267.528 74.248 266.76L73.96 266.472C73.448 265.944 73.016 265.288 73.016 264.44C73.016 263 74.168 261.688 76.104 261.688C77.768 261.688 79.096 262.648 79.096 264.168C79.096 265.432 78.184 266.344 76.888 267.096L78.728 269.016C79.096 268.328 79.368 267.56 79.624 266.776H82.2V268.392ZM73.736 269.88C73.752 270.856 74.552 271.464 75.624 271.464C76.472 271.464 77.176 271.08 77.752 270.456L75.288 267.88C74.312 268.408 73.736 269.096 73.736 269.88ZM74.856 264.36C74.856 264.936 75.256 265.384 75.848 266.008C76.856 265.448 77.272 264.872 77.272 264.28C77.256 263.592 76.792 263.208 76.104 263.208C75.32 263.208 74.856 263.736 74.856 264.36ZM86.791 273V261.8H88.919V263.576H91.687C93.975 263.576 95.127 265.24 95.127 267.272C95.127 268.952 94.343 271.016 91.607 271.016H88.919V273H86.791ZM88.919 265.352V269.24H91.223C92.295 269.24 92.967 268.536 92.967 267.272C92.967 266.264 92.519 265.352 91.191 265.352H88.919ZM99.6821 273.128C97.3941 273.128 96.0821 271.656 95.9861 269.704H98.0661C98.1301 270.552 98.5941 271.304 99.6341 271.304C100.722 271.304 101.202 270.52 101.202 269.352V261.8H103.33V269.368C103.33 271.736 101.906 273.128 99.6821 273.128ZM109.716 273.128C106.932 273.128 104.804 271.16 104.804 267.352C104.804 263.592 106.932 261.672 109.716 261.672C112.548 261.672 114.644 263.592 114.644 267.352C114.644 271.128 112.548 273.128 109.716 273.128ZM107.028 267.352C107.028 269.656 108.004 271.288 109.716 271.288C111.444 271.288 112.436 269.656 112.436 267.352C112.436 265.048 111.444 263.512 109.716 263.512C108.004 263.512 107.028 265.048 107.028 267.352ZM108.74 260.888L109.94 258.424H112.34L110.452 260.888H108.74ZM118.26 273H116.132V261.8H118.66L123.124 269.832H123.22V261.8H125.348V273H122.884L118.356 265.032H118.26V273ZM131.453 273.128C128.653 273.128 127.101 271.208 127.101 268.728V261.8H129.213L129.245 268.6C129.245 269.896 129.885 271.224 131.453 271.224C133.069 271.224 133.693 269.896 133.693 268.6V261.8H135.837V268.728C135.837 271.208 134.301 273.128 131.453 273.128ZM137.16 269.72H139.368C139.544 270.616 140.072 271.352 141.56 271.352C142.696 271.352 143.592 270.888 143.592 269.912C143.592 269.16 143.096 268.776 142.152 268.52L140.28 268.008C138.36 267.496 137.32 266.488 137.32 264.872C137.32 262.728 139.144 261.672 141.48 261.672C144.248 261.672 145.48 263.144 145.64 265.032H143.432C143.368 264.296 142.888 263.432 141.448 263.432C140.344 263.432 139.528 263.912 139.528 264.808C139.528 265.656 140.232 265.96 140.984 266.168L142.936 266.712C145.032 267.272 145.768 268.344 145.768 269.752C145.768 271.88 144.104 273.112 141.528 273.112C138.52 273.112 137.352 271.64 137.16 269.72ZM151.519 273H149.391V263.576H146.255V261.8H154.655V263.576H151.519V273ZM153.836 273L157.724 261.8H160.492L164.332 273H162.028L161.068 269.944H157.116L156.156 273H153.836ZM159.036 263.896L157.66 268.248H160.54L159.18 263.896H159.036Z" fill="#123BF3"/>
<path d="M2.24 311.8C2.33333 312.427 2.62 312.92 3.1 313.28C3.58 313.64 4.20667 313.82 4.98 313.82C5.63333 313.82 6.18667 313.667 6.64 313.36C7.10667 313.053 7.34 312.633 7.34 312.1C7.34 311.687 7.22667 311.367 7 311.14C6.77333 310.913 6.40667 310.747 5.9 310.64L3.34 310.12C2.98 310.04 2.64667 309.94 2.34 309.82C2.03333 309.687 1.76667 309.52 1.54 309.32C1.32667 309.12 1.15333 308.873 1.02 308.58C0.9 308.287 0.84 307.933 0.84 307.52C0.84 307.08 0.933333 306.673 1.12 306.3C1.32 305.913 1.59333 305.58 1.94 305.3C2.28667 305.02 2.7 304.8 3.18 304.64C3.66 304.467 4.18667 304.38 4.76 304.38C6.04 304.38 7.03333 304.687 7.74 305.3C8.46 305.9 8.87333 306.7 8.98 307.7H7.22C7.14 307.1 6.88667 306.633 6.46 306.3C6.04667 305.953 5.48 305.78 4.76 305.78C4.12 305.78 3.59333 305.933 3.18 306.24C2.78 306.533 2.58 306.92 2.58 307.4C2.58 307.773 2.68667 308.053 2.9 308.24C3.12667 308.427 3.44667 308.56 3.86 308.64L6.52 309.18C7.34667 309.353 7.98 309.667 8.42 310.12C8.87333 310.573 9.1 311.187 9.1 311.96C9.1 312.453 8.99333 312.9 8.78 313.3C8.56667 313.7 8.27333 314.047 7.9 314.34C7.52667 314.62 7.08667 314.84 6.58 315C6.08667 315.147 5.55333 315.22 4.98 315.22C4.31333 315.22 3.71333 315.14 3.18 314.98C2.64667 314.807 2.18667 314.567 1.8 314.26C1.41333 313.953 1.1 313.593 0.86 313.18C0.633333 312.767 0.493333 312.307 0.44 311.8H2.24ZM19.868 311.8C19.788 312.307 19.6213 312.773 19.368 313.2C19.128 313.613 18.8146 313.973 18.428 314.28C18.0546 314.573 17.6213 314.807 17.128 314.98C16.6346 315.14 16.0946 315.22 15.508 315.22C14.8013 315.22 14.148 315.093 13.548 314.84C12.9613 314.573 12.4546 314.2 12.028 313.72C11.6013 313.24 11.268 312.673 11.028 312.02C10.8013 311.353 10.688 310.62 10.688 309.82C10.688 309.033 10.808 308.307 11.048 307.64C11.288 306.973 11.6213 306.4 12.048 305.92C12.488 305.44 13.0013 305.067 13.588 304.8C14.1746 304.52 14.8146 304.38 15.508 304.38C16.228 304.38 16.868 304.513 17.428 304.78C18.0013 305.047 18.4746 305.413 18.848 305.88C19.2346 306.333 19.528 306.873 19.728 307.5C19.928 308.127 20.028 308.8 20.028 309.52C20.028 309.707 20.008 309.927 19.968 310.18H12.368C12.408 310.767 12.5146 311.287 12.688 311.74C12.8613 312.193 13.088 312.573 13.368 312.88C13.648 313.173 13.968 313.4 14.328 313.56C14.688 313.707 15.0813 313.78 15.508 313.78C16.2413 313.78 16.8413 313.6 17.308 313.24C17.7746 312.88 18.0813 312.4 18.228 311.8H19.868ZM15.488 305.84C15.048 305.84 14.6546 305.92 14.308 306.08C13.9613 306.227 13.6613 306.433 13.408 306.7C13.1546 306.967 12.948 307.287 12.788 307.66C12.628 308.02 12.5146 308.42 12.448 308.86H18.288C18.288 308.46 18.228 308.08 18.108 307.72C17.988 307.347 17.808 307.02 17.568 306.74C17.3413 306.46 17.048 306.24 16.688 306.08C16.3413 305.92 15.9413 305.84 15.488 305.84ZM27.7144 306.28H27.1944C26.741 306.28 26.321 306.367 25.9344 306.54C25.5477 306.7 25.2144 306.927 24.9344 307.22C24.6544 307.513 24.4344 307.867 24.2744 308.28C24.1144 308.68 24.0344 309.127 24.0344 309.62V315H22.2144V304.6H24.0344V306.78C24.301 306.1 24.7144 305.553 25.2744 305.14C25.8477 304.713 26.5144 304.5 27.2744 304.5H27.7144V306.28ZM32.4647 315L28.5847 304.6H30.4447L33.4247 313.04L36.3847 304.6H38.2047L34.3247 315H32.4647ZM39.7898 300.56H41.7498V302.52H39.7898V300.56ZM41.6698 315H39.8698V304.6H41.6698V315ZM43.87 309.8C43.87 309 43.99 308.267 44.23 307.6C44.47 306.933 44.8033 306.36 45.23 305.88C45.67 305.4 46.1833 305.033 46.77 304.78C47.3567 304.513 47.9967 304.38 48.69 304.38C49.2767 304.38 49.81 304.467 50.29 304.64C50.77 304.8 51.1833 305.027 51.53 305.32C51.89 305.613 52.1833 305.967 52.41 306.38C52.6367 306.78 52.79 307.22 52.87 307.7H51.09C50.9567 307.127 50.6833 306.673 50.27 306.34C49.8567 306.007 49.33 305.84 48.69 305.84C48.2367 305.84 47.8233 305.933 47.45 306.12C47.0767 306.307 46.7567 306.573 46.49 306.92C46.2233 307.267 46.0167 307.687 45.87 308.18C45.7233 308.66 45.65 309.2 45.65 309.8C45.65 310.4 45.7233 310.947 45.87 311.44C46.0167 311.92 46.2233 312.333 46.49 312.68C46.7567 313.027 47.0767 313.293 47.45 313.48C47.8233 313.667 48.2367 313.76 48.69 313.76C49.33 313.76 49.8633 313.593 50.29 313.26C50.7167 312.913 50.9967 312.427 51.13 311.8H52.89C52.7167 312.827 52.2567 313.653 51.51 314.28C50.7767 314.907 49.8233 315.22 48.65 315.22C47.97 315.22 47.3367 315.093 46.75 314.84C46.1633 314.573 45.6567 314.2 45.23 313.72C44.8033 313.24 44.47 312.667 44.23 312C43.99 311.333 43.87 310.6 43.87 309.8ZM63.4695 311.8C63.3895 312.307 63.2229 312.773 62.9695 313.2C62.7295 313.613 62.4162 313.973 62.0295 314.28C61.6562 314.573 61.2229 314.807 60.7295 314.98C60.2362 315.14 59.6962 315.22 59.1095 315.22C58.4029 315.22 57.7495 315.093 57.1495 314.84C56.5629 314.573 56.0562 314.2 55.6295 313.72C55.2029 313.24 54.8695 312.673 54.6295 312.02C54.4029 311.353 54.2895 310.62 54.2895 309.82C54.2895 309.033 54.4095 308.307 54.6495 307.64C54.8895 306.973 55.2229 306.4 55.6495 305.92C56.0895 305.44 56.6029 305.067 57.1895 304.8C57.7762 304.52 58.4162 304.38 59.1095 304.38C59.8295 304.38 60.4695 304.513 61.0295 304.78C61.6029 305.047 62.0762 305.413 62.4495 305.88C62.8362 306.333 63.1295 306.873 63.3295 307.5C63.5295 308.127 63.6295 308.8 63.6295 309.52C63.6295 309.707 63.6095 309.927 63.5695 310.18H55.9695C56.0095 310.767 56.1162 311.287 56.2895 311.74C56.4629 312.193 56.6895 312.573 56.9695 312.88C57.2495 313.173 57.5695 313.4 57.9295 313.56C58.2895 313.707 58.6829 313.78 59.1095 313.78C59.8429 313.78 60.4429 313.6 60.9095 313.24C61.3762 312.88 61.6829 312.4 61.8295 311.8H63.4695ZM59.0895 305.84C58.6495 305.84 58.2562 305.92 57.9095 306.08C57.5629 306.227 57.2629 306.433 57.0095 306.7C56.7562 306.967 56.5495 307.287 56.3895 307.66C56.2295 308.02 56.1162 308.42 56.0495 308.86H61.8895C61.8895 308.46 61.8295 308.08 61.7095 307.72C61.5895 307.347 61.4095 307.02 61.1695 306.74C60.9429 306.46 60.6495 306.24 60.2895 306.08C59.9429 305.92 59.5429 305.84 59.0895 305.84ZM77.3727 312.56C77.666 312.56 77.946 312.467 78.2127 312.28C78.4927 312.093 78.7393 311.833 78.9527 311.5C79.166 311.153 79.3327 310.747 79.4527 310.28C79.5727 309.8 79.6327 309.273 79.6327 308.7C79.6327 307.847 79.4793 307.093 79.1727 306.44C78.866 305.773 78.446 305.22 77.9127 304.78C77.3793 304.327 76.7593 303.987 76.0527 303.76C75.3593 303.533 74.6193 303.42 73.8327 303.42C72.9127 303.42 72.0327 303.58 71.1927 303.9C70.3527 304.22 69.6127 304.673 68.9727 305.26C68.3327 305.847 67.826 306.553 67.4527 307.38C67.0793 308.207 66.8927 309.127 66.8927 310.14C66.8927 311.073 67.0527 311.927 67.3727 312.7C67.706 313.46 68.1527 314.113 68.7127 314.66C69.286 315.207 69.966 315.627 70.7527 315.92C71.5393 316.227 72.3927 316.38 73.3127 316.38C74.1527 316.38 74.886 316.273 75.5127 316.06C76.1527 315.847 76.686 315.547 77.1127 315.16H79.1927C78.8593 315.64 78.4727 316.047 78.0327 316.38C77.5927 316.713 77.1193 316.98 76.6127 317.18C76.106 317.393 75.5727 317.547 75.0127 317.64C74.4527 317.747 73.886 317.8 73.3127 317.8C72.1527 317.8 71.086 317.62 70.1127 317.26C69.1527 316.9 68.3193 316.38 67.6127 315.7C66.906 315.033 66.3527 314.233 65.9527 313.3C65.566 312.353 65.3727 311.3 65.3727 310.14C65.3727 308.953 65.5927 307.86 66.0327 306.86C66.4727 305.86 67.0727 305 67.8327 304.28C68.5927 303.56 69.486 303 70.5127 302.6C71.5393 302.2 72.646 302 73.8327 302C74.8593 302 75.8127 302.153 76.6927 302.46C77.586 302.767 78.3593 303.207 79.0127 303.78C79.6793 304.353 80.1993 305.053 80.5727 305.88C80.9593 306.693 81.1527 307.62 81.1527 308.66C81.1527 309.447 81.046 310.16 80.8327 310.8C80.6327 311.427 80.3527 311.967 79.9927 312.42C79.6327 312.873 79.2127 313.227 78.7327 313.48C78.266 313.72 77.766 313.84 77.2327 313.84C76.6327 313.84 76.146 313.693 75.7727 313.4C75.4127 313.093 75.186 312.7 75.0927 312.22C74.866 312.687 74.5327 313.073 74.0927 313.38C73.6527 313.687 73.1127 313.84 72.4727 313.84C72.0327 313.84 71.626 313.767 71.2527 313.62C70.8927 313.46 70.5793 313.233 70.3127 312.94C70.046 312.633 69.8393 312.26 69.6927 311.82C69.546 311.38 69.4727 310.88 69.4727 310.32C69.4727 309.68 69.5727 309.093 69.7727 308.56C69.9727 308.013 70.246 307.547 70.5927 307.16C70.9393 306.76 71.3393 306.453 71.7927 306.24C72.2593 306.013 72.7593 305.9 73.2927 305.9C73.946 305.9 74.466 306.047 74.8527 306.34C75.2393 306.633 75.4993 306.967 75.6327 307.34L75.8727 306.02H77.4527L76.5127 310.94C76.4193 311.407 76.4393 311.793 76.5727 312.1C76.706 312.407 76.9727 312.56 77.3727 312.56ZM75.2527 309.36C75.306 309.04 75.2993 308.747 75.2327 308.48C75.166 308.213 75.0527 307.987 74.8927 307.8C74.746 307.6 74.5527 307.447 74.3127 307.34C74.0727 307.233 73.8127 307.18 73.5327 307.18C73.1593 307.18 72.8193 307.267 72.5127 307.44C72.206 307.6 71.946 307.827 71.7327 308.12C71.5193 308.4 71.3527 308.733 71.2327 309.12C71.1127 309.493 71.0527 309.887 71.0527 310.3C71.0527 311.073 71.2327 311.647 71.5927 312.02C71.9527 312.38 72.3793 312.56 72.8727 312.56C73.4327 312.56 73.906 312.347 74.2927 311.92C74.6927 311.48 74.9527 310.96 75.0727 310.36L75.2527 309.36ZM84.3462 311.8C84.4396 312.427 84.7262 312.92 85.2062 313.28C85.6862 313.64 86.3129 313.82 87.0862 313.82C87.7396 313.82 88.2929 313.667 88.7462 313.36C89.2129 313.053 89.4462 312.633 89.4462 312.1C89.4462 311.687 89.3329 311.367 89.1062 311.14C88.8796 310.913 88.5129 310.747 88.0062 310.64L85.4462 310.12C85.0862 310.04 84.7529 309.94 84.4462 309.82C84.1396 309.687 83.8729 309.52 83.6462 309.32C83.4329 309.12 83.2596 308.873 83.1262 308.58C83.0062 308.287 82.9462 307.933 82.9462 307.52C82.9462 307.08 83.0396 306.673 83.2262 306.3C83.4262 305.913 83.6996 305.58 84.0462 305.3C84.3929 305.02 84.8062 304.8 85.2862 304.64C85.7662 304.467 86.2929 304.38 86.8662 304.38C88.1462 304.38 89.1396 304.687 89.8462 305.3C90.5662 305.9 90.9796 306.7 91.0862 307.7H89.3262C89.2462 307.1 88.9929 306.633 88.5662 306.3C88.1529 305.953 87.5862 305.78 86.8662 305.78C86.2262 305.78 85.6996 305.933 85.2862 306.24C84.8862 306.533 84.6862 306.92 84.6862 307.4C84.6862 307.773 84.7929 308.053 85.0062 308.24C85.2329 308.427 85.5529 308.56 85.9662 308.64L88.6262 309.18C89.4529 309.353 90.0862 309.667 90.5262 310.12C90.9796 310.573 91.2062 311.187 91.2062 311.96C91.2062 312.453 91.0996 312.9 90.8862 313.3C90.6729 313.7 90.3796 314.047 90.0062 314.34C89.6329 314.62 89.1929 314.84 88.6862 315C88.1929 315.147 87.6596 315.22 87.0862 315.22C86.4196 315.22 85.8196 315.14 85.2862 314.98C84.7529 314.807 84.2929 314.567 83.9062 314.26C83.5196 313.953 83.2062 313.593 82.9662 313.18C82.7396 312.767 82.5996 312.307 82.5462 311.8H84.3462ZM93.2742 300.56H95.2342V302.52H93.2742V300.56ZM95.1542 315H93.3542V304.6H95.1542V315ZM97.9144 304.6H99.7144V306.28C99.8477 306.04 100.014 305.807 100.214 305.58C100.428 305.34 100.674 305.133 100.954 304.96C101.234 304.787 101.541 304.647 101.874 304.54C102.221 304.433 102.594 304.38 102.994 304.38C103.554 304.38 104.054 304.48 104.494 304.68C104.948 304.867 105.321 305.133 105.614 305.48C105.921 305.813 106.154 306.22 106.314 306.7C106.474 307.18 106.554 307.7 106.554 308.26V315H104.754V308.62C104.754 307.833 104.561 307.18 104.174 306.66C103.801 306.14 103.208 305.88 102.394 305.88C102.048 305.88 101.714 305.947 101.394 306.08C101.074 306.213 100.788 306.407 100.534 306.66C100.281 306.913 100.081 307.227 99.9344 307.6C99.7877 307.96 99.7144 308.373 99.7144 308.84V315H97.9144V304.6ZM109.598 306.06H108.038V304.6H109.598V302H111.358V304.6H113.818V306.06H111.358V312.24C111.358 312.707 111.458 313.033 111.658 313.22C111.872 313.407 112.192 313.5 112.618 313.5H113.818V315H112.178C111.392 315 110.765 314.8 110.298 314.4C109.832 314 109.598 313.353 109.598 312.46V306.06ZM124.327 311.8C124.247 312.307 124.08 312.773 123.827 313.2C123.587 313.613 123.273 313.973 122.887 314.28C122.513 314.573 122.08 314.807 121.587 314.98C121.093 315.14 120.553 315.22 119.967 315.22C119.26 315.22 118.607 315.093 118.007 314.84C117.42 314.573 116.913 314.2 116.487 313.72C116.06 313.24 115.727 312.673 115.487 312.02C115.26 311.353 115.147 310.62 115.147 309.82C115.147 309.033 115.267 308.307 115.507 307.64C115.747 306.973 116.08 306.4 116.507 305.92C116.947 305.44 117.46 305.067 118.047 304.8C118.633 304.52 119.273 304.38 119.967 304.38C120.687 304.38 121.327 304.513 121.887 304.78C122.46 305.047 122.933 305.413 123.307 305.88C123.693 306.333 123.987 306.873 124.187 307.5C124.387 308.127 124.487 308.8 124.487 309.52C124.487 309.707 124.467 309.927 124.427 310.18H116.827C116.867 310.767 116.973 311.287 117.147 311.74C117.32 312.193 117.547 312.573 117.827 312.88C118.107 313.173 118.427 313.4 118.787 313.56C119.147 313.707 119.54 313.78 119.967 313.78C120.7 313.78 121.3 313.6 121.767 313.24C122.233 312.88 122.54 312.4 122.687 311.8H124.327ZM119.947 305.84C119.507 305.84 119.113 305.92 118.767 306.08C118.42 306.227 118.12 306.433 117.867 306.7C117.613 306.967 117.407 307.287 117.247 307.66C117.087 308.02 116.973 308.42 116.907 308.86H122.747C122.747 308.46 122.687 308.08 122.567 307.72C122.447 307.347 122.267 307.02 122.027 306.74C121.8 306.46 121.507 306.24 121.147 306.08C120.8 305.92 120.4 305.84 119.947 305.84ZM128.453 309.48L133.213 304.6H135.473L131.173 308.84L135.653 315H133.553L129.933 310.06L128.453 311.52V315H126.673V300.4H128.453V309.48ZM136.929 312.8H139.149V315H136.929V312.8ZM141.514 300.56H143.474V302.52H141.514V300.56ZM143.394 315H141.594V304.6H143.394V315ZM147.214 311.8C147.308 312.427 147.594 312.92 148.074 313.28C148.554 313.64 149.181 313.82 149.954 313.82C150.608 313.82 151.161 313.667 151.614 313.36C152.081 313.053 152.314 312.633 152.314 312.1C152.314 311.687 152.201 311.367 151.974 311.14C151.748 310.913 151.381 310.747 150.874 310.64L148.314 310.12C147.954 310.04 147.621 309.94 147.314 309.82C147.008 309.687 146.741 309.52 146.514 309.32C146.301 309.12 146.128 308.873 145.994 308.58C145.874 308.287 145.814 307.933 145.814 307.52C145.814 307.08 145.908 306.673 146.094 306.3C146.294 305.913 146.568 305.58 146.914 305.3C147.261 305.02 147.674 304.8 148.154 304.64C148.634 304.467 149.161 304.38 149.734 304.38C151.014 304.38 152.008 304.687 152.714 305.3C153.434 305.9 153.848 306.7 153.954 307.7H152.194C152.114 307.1 151.861 306.633 151.434 306.3C151.021 305.953 150.454 305.78 149.734 305.78C149.094 305.78 148.568 305.933 148.154 306.24C147.754 306.533 147.554 306.92 147.554 307.4C147.554 307.773 147.661 308.053 147.874 308.24C148.101 308.427 148.421 308.56 148.834 308.64L151.494 309.18C152.321 309.353 152.954 309.667 153.394 310.12C153.848 310.573 154.074 311.187 154.074 311.96C154.074 312.453 153.968 312.9 153.754 313.3C153.541 313.7 153.248 314.047 152.874 314.34C152.501 314.62 152.061 314.84 151.554 315C151.061 315.147 150.528 315.22 149.954 315.22C149.288 315.22 148.688 315.14 148.154 314.98C147.621 314.807 147.161 314.567 146.774 314.26C146.388 313.953 146.074 313.593 145.834 313.18C145.608 312.767 145.468 312.307 145.414 311.8H147.214Z" fill="black"/>
<path d="M6.46 335.76C5.78 335.76 5.17333 335.927 4.64 336.26C4.10667 336.593 3.66 337.06 3.3 337.66C2.95333 338.247 2.7 338.947 2.54 339.76C2.39333 340.573 2.35333 341.453 2.42 342.4C2.51333 341.987 2.67333 341.6 2.9 341.24C3.14 340.867 3.43333 340.547 3.78 340.28C4.14 340 4.54667 339.78 5 339.62C5.45333 339.46 5.95333 339.38 6.5 339.38C7.20667 339.38 7.85333 339.507 8.44 339.76C9.02667 340 9.53333 340.333 9.96 340.76C10.3867 341.187 10.72 341.7 10.96 342.3C11.2 342.9 11.32 343.547 11.32 344.24C11.32 344.947 11.1933 345.607 10.94 346.22C10.6867 346.82 10.3333 347.347 9.88 347.8C9.44 348.24 8.9 348.587 8.26 348.84C7.63333 349.093 6.94 349.22 6.18 349.22C5.34 349.22 4.57333 349.053 3.88 348.72C3.2 348.373 2.61333 347.887 2.12 347.26C1.64 346.62 1.26667 345.853 1 344.96C0.746667 344.067 0.62 343.06 0.62 341.94C0.62 340.78 0.76 339.727 1.04 338.78C1.33333 337.82 1.73333 337 2.24 336.32C2.76 335.64 3.38 335.113 4.1 334.74C4.82 334.367 5.61333 334.18 6.48 334.18C7.73333 334.18 8.77333 334.507 9.6 335.16C10.4267 335.8 10.9533 336.687 11.18 337.82H9.36C9.14667 337.153 8.79333 336.647 8.3 336.3C7.82 335.94 7.20667 335.76 6.46 335.76ZM9.52 344.26C9.52 343.78 9.44 343.333 9.28 342.92C9.12 342.507 8.89333 342.153 8.6 341.86C8.30667 341.553 7.95333 341.313 7.54 341.14C7.12667 340.967 6.66667 340.88 6.16 340.88C5.65333 340.88 5.19333 340.967 4.78 341.14C4.38 341.313 4.02667 341.553 3.72 341.86C3.42667 342.153 3.2 342.507 3.04 342.92C2.88 343.333 2.8 343.78 2.8 344.26C2.8 344.74 2.88 345.193 3.04 345.62C3.2 346.033 3.42667 346.393 3.72 346.7C4.02667 346.993 4.38 347.227 4.78 347.4C5.19333 347.573 5.65333 347.66 6.16 347.66C6.66667 347.66 7.12667 347.573 7.54 347.4C7.95333 347.227 8.30667 346.993 8.6 346.7C8.89333 346.393 9.12 346.033 9.28 345.62C9.44 345.193 9.52 344.74 9.52 344.26ZM17.6755 347.64C18.3555 347.64 18.9621 347.473 19.4955 347.14C20.0288 346.807 20.4688 346.347 20.8155 345.76C21.1755 345.16 21.4288 344.453 21.5755 343.64C21.7355 342.827 21.7821 341.947 21.7155 341C21.6221 341.413 21.4555 341.807 21.2155 342.18C20.9888 342.54 20.6955 342.86 20.3355 343.14C19.9888 343.407 19.5888 343.62 19.1355 343.78C18.6821 343.94 18.1821 344.02 17.6355 344.02C16.9288 344.02 16.2821 343.9 15.6955 343.66C15.1088 343.407 14.6021 343.067 14.1755 342.64C13.7488 342.213 13.4155 341.707 13.1755 341.12C12.9488 340.52 12.8355 339.867 12.8355 339.16C12.8355 338.453 12.9555 337.8 13.1955 337.2C13.4488 336.587 13.8021 336.06 14.2555 335.62C14.7088 335.167 15.2488 334.813 15.8755 334.56C16.5021 334.307 17.1955 334.18 17.9555 334.18C18.7955 334.18 19.5555 334.353 20.2355 334.7C20.9288 335.033 21.5155 335.52 21.9955 336.16C22.4888 336.787 22.8688 337.547 23.1355 338.44C23.4021 339.333 23.5355 340.34 23.5355 341.46C23.5355 342.62 23.3888 343.68 23.0955 344.64C22.8155 345.587 22.4155 346.4 21.8955 347.08C21.3755 347.76 20.7555 348.287 20.0355 348.66C19.3155 349.033 18.5221 349.22 17.6555 349.22C16.4021 349.22 15.3621 348.9 14.5355 348.26C13.7221 347.607 13.2021 346.713 12.9755 345.58H14.7955C14.9955 346.247 15.3421 346.76 15.8355 347.12C16.3288 347.467 16.9421 347.64 17.6755 347.64ZM14.6355 339.14C14.6355 339.62 14.7155 340.067 14.8755 340.48C15.0355 340.893 15.2621 341.253 15.5555 341.56C15.8488 341.853 16.1955 342.087 16.5955 342.26C17.0088 342.433 17.4688 342.52 17.9755 342.52C18.4821 342.52 18.9421 342.433 19.3555 342.26C19.7688 342.087 20.1221 341.853 20.4155 341.56C20.7221 341.253 20.9555 340.893 21.1155 340.48C21.2755 340.067 21.3555 339.62 21.3555 339.14C21.3555 338.66 21.2755 338.213 21.1155 337.8C20.9555 337.373 20.7221 337.013 20.4155 336.72C20.1221 336.413 19.7688 336.173 19.3555 336C18.9421 335.827 18.4821 335.74 17.9755 335.74C17.4688 335.74 17.0088 335.827 16.5955 336C16.1955 336.173 15.8488 336.413 15.5555 336.72C15.2621 337.013 15.0355 337.373 14.8755 337.8C14.7155 338.213 14.6355 338.66 14.6355 339.14ZM30.4314 334.2C31.1114 334.2 31.7447 334.3 32.3314 334.5C32.9314 334.687 33.4447 334.953 33.8714 335.3C34.3114 335.647 34.6514 336.067 34.8914 336.56C35.1447 337.053 35.2714 337.6 35.2714 338.2C35.2714 338.627 35.2047 339.013 35.0714 339.36C34.9381 339.707 34.7581 340.02 34.5314 340.3C34.3181 340.567 34.0581 340.8 33.7514 341C33.4581 341.2 33.1514 341.36 32.8314 341.48C33.1914 341.56 33.5447 341.7 33.8914 341.9C34.2514 342.1 34.5714 342.353 34.8514 342.66C35.1447 342.967 35.3781 343.32 35.5514 343.72C35.7381 344.12 35.8314 344.56 35.8314 345.04C35.8314 345.653 35.6981 346.22 35.4314 346.74C35.1647 347.247 34.7914 347.687 34.3114 348.06C33.8447 348.42 33.2781 348.707 32.6114 348.92C31.9581 349.12 31.2314 349.22 30.4314 349.22C29.6447 349.22 28.9181 349.12 28.2514 348.92C27.5981 348.707 27.0314 348.42 26.5514 348.06C26.0847 347.687 25.7181 347.247 25.4514 346.74C25.1847 346.22 25.0514 345.653 25.0514 345.04C25.0514 344.56 25.1381 344.12 25.3114 343.72C25.4981 343.32 25.7314 342.967 26.0114 342.66C26.3047 342.353 26.6314 342.1 26.9914 341.9C27.3514 341.7 27.7114 341.56 28.0714 341.48C27.7381 341.36 27.4247 341.2 27.1314 341C26.8381 340.8 26.5781 340.567 26.3514 340.3C26.1247 340.02 25.9447 339.707 25.8114 339.36C25.6781 339.013 25.6114 338.627 25.6114 338.2C25.6114 337.6 25.7314 337.053 25.9714 336.56C26.2247 336.067 26.5647 335.647 26.9914 335.3C27.4314 334.953 27.9447 334.687 28.5314 334.5C29.1181 334.3 29.7514 334.2 30.4314 334.2ZM30.4314 340.78C30.8581 340.78 31.2581 340.727 31.6314 340.62C32.0047 340.5 32.3314 340.333 32.6114 340.12C32.8914 339.893 33.1114 339.627 33.2714 339.32C33.4314 339 33.5114 338.633 33.5114 338.22C33.5114 337.807 33.4314 337.44 33.2714 337.12C33.1114 336.8 32.8914 336.533 32.6114 336.32C32.3314 336.093 32.0047 335.927 31.6314 335.82C31.2581 335.7 30.8581 335.64 30.4314 335.64C30.0181 335.64 29.6247 335.7 29.2514 335.82C28.8914 335.927 28.5714 336.093 28.2914 336.32C28.0114 336.533 27.7914 336.8 27.6314 337.12C27.4714 337.44 27.3914 337.807 27.3914 338.22C27.3914 338.633 27.4714 339 27.6314 339.32C27.7914 339.627 28.0114 339.893 28.2914 340.12C28.5714 340.333 28.8914 340.5 29.2514 340.62C29.6247 340.727 30.0181 340.78 30.4314 340.78ZM30.4314 347.74C30.9647 347.74 31.4447 347.673 31.8714 347.54C32.3114 347.407 32.6847 347.22 32.9914 346.98C33.2981 346.74 33.5314 346.453 33.6914 346.12C33.8647 345.773 33.9514 345.387 33.9514 344.96C33.9514 344.12 33.6314 343.453 32.9914 342.96C32.3514 342.453 31.4981 342.2 30.4314 342.2C29.3647 342.2 28.5114 342.453 27.8714 342.96C27.2314 343.453 26.9114 344.12 26.9114 344.96C26.9114 345.387 26.9914 345.773 27.1514 346.12C27.3247 346.453 27.5647 346.74 27.8714 346.98C28.1781 347.22 28.5447 347.407 28.9714 347.54C29.4114 347.673 29.8981 347.74 30.4314 347.74ZM41.4331 336.04V334.4H51.7131V336.02C50.8331 336.967 50.0998 337.947 49.5131 338.96C48.9265 339.96 48.4531 340.993 48.0931 342.06C47.7465 343.127 47.4998 344.24 47.3531 345.4C47.2065 346.547 47.1331 347.747 47.1331 349H45.1931C45.1931 343.64 46.6731 339.32 49.6331 336.04H41.4331ZM52.7855 336.24C53.3721 336.24 53.8721 336.213 54.2855 336.16C54.6988 336.107 55.0388 336.013 55.3055 335.88C55.5855 335.733 55.7988 335.547 55.9455 335.32C56.0921 335.08 56.1921 334.773 56.2455 334.4H57.6855V349H55.8455V337.54H52.7855V336.24ZM65.2345 334.2C65.9145 334.2 66.5479 334.3 67.1345 334.5C67.7345 334.687 68.2479 334.953 68.6745 335.3C69.1145 335.647 69.4545 336.067 69.6945 336.56C69.9479 337.053 70.0745 337.6 70.0745 338.2C70.0745 338.627 70.0079 339.013 69.8745 339.36C69.7412 339.707 69.5612 340.02 69.3345 340.3C69.1212 340.567 68.8612 340.8 68.5545 341C68.2612 341.2 67.9545 341.36 67.6345 341.48C67.9945 341.56 68.3479 341.7 68.6945 341.9C69.0545 342.1 69.3745 342.353 69.6545 342.66C69.9479 342.967 70.1812 343.32 70.3545 343.72C70.5412 344.12 70.6345 344.56 70.6345 345.04C70.6345 345.653 70.5012 346.22 70.2345 346.74C69.9679 347.247 69.5945 347.687 69.1145 348.06C68.6479 348.42 68.0812 348.707 67.4145 348.92C66.7612 349.12 66.0345 349.22 65.2345 349.22C64.4479 349.22 63.7212 349.12 63.0545 348.92C62.4012 348.707 61.8345 348.42 61.3545 348.06C60.8879 347.687 60.5212 347.247 60.2545 346.74C59.9879 346.22 59.8545 345.653 59.8545 345.04C59.8545 344.56 59.9412 344.12 60.1145 343.72C60.3012 343.32 60.5345 342.967 60.8145 342.66C61.1079 342.353 61.4345 342.1 61.7945 341.9C62.1545 341.7 62.5145 341.56 62.8745 341.48C62.5412 341.36 62.2279 341.2 61.9345 341C61.6412 340.8 61.3812 340.567 61.1545 340.3C60.9279 340.02 60.7479 339.707 60.6145 339.36C60.4812 339.013 60.4145 338.627 60.4145 338.2C60.4145 337.6 60.5345 337.053 60.7745 336.56C61.0279 336.067 61.3679 335.647 61.7945 335.3C62.2345 334.953 62.7479 334.687 63.3345 334.5C63.9212 334.3 64.5545 334.2 65.2345 334.2ZM65.2345 340.78C65.6612 340.78 66.0612 340.727 66.4345 340.62C66.8079 340.5 67.1345 340.333 67.4145 340.12C67.6945 339.893 67.9145 339.627 68.0745 339.32C68.2345 339 68.3145 338.633 68.3145 338.22C68.3145 337.807 68.2345 337.44 68.0745 337.12C67.9145 336.8 67.6945 336.533 67.4145 336.32C67.1345 336.093 66.8079 335.927 66.4345 335.82C66.0612 335.7 65.6612 335.64 65.2345 335.64C64.8212 335.64 64.4279 335.7 64.0545 335.82C63.6945 335.927 63.3745 336.093 63.0945 336.32C62.8145 336.533 62.5945 336.8 62.4345 337.12C62.2745 337.44 62.1945 337.807 62.1945 338.22C62.1945 338.633 62.2745 339 62.4345 339.32C62.5945 339.627 62.8145 339.893 63.0945 340.12C63.3745 340.333 63.6945 340.5 64.0545 340.62C64.4279 340.727 64.8212 340.78 65.2345 340.78ZM65.2345 347.74C65.7679 347.74 66.2479 347.673 66.6745 347.54C67.1145 347.407 67.4879 347.22 67.7945 346.98C68.1012 346.74 68.3345 346.453 68.4945 346.12C68.6679 345.773 68.7545 345.387 68.7545 344.96C68.7545 344.12 68.4345 343.453 67.7945 342.96C67.1545 342.453 66.3012 342.2 65.2345 342.2C64.1679 342.2 63.3145 342.453 62.6745 342.96C62.0345 343.453 61.7145 344.12 61.7145 344.96C61.7145 345.387 61.7945 345.773 61.9545 346.12C62.1279 346.453 62.3679 346.74 62.6745 346.98C62.9812 347.22 63.3479 347.407 63.7745 347.54C64.2145 347.673 64.7012 347.74 65.2345 347.74ZM76.97 347.64C77.65 347.64 78.2567 347.473 78.79 347.14C79.3233 346.807 79.7633 346.347 80.11 345.76C80.47 345.16 80.7233 344.453 80.87 343.64C81.03 342.827 81.0767 341.947 81.01 341C80.9167 341.413 80.75 341.807 80.51 342.18C80.2833 342.54 79.99 342.86 79.63 343.14C79.2833 343.407 78.8833 343.62 78.43 343.78C77.9767 343.94 77.4767 344.02 76.93 344.02C76.2233 344.02 75.5767 343.9 74.99 343.66C74.4033 343.407 73.8967 343.067 73.47 342.64C73.0433 342.213 72.71 341.707 72.47 341.12C72.2433 340.52 72.13 339.867 72.13 339.16C72.13 338.453 72.25 337.8 72.49 337.2C72.7433 336.587 73.0967 336.06 73.55 335.62C74.0033 335.167 74.5433 334.813 75.17 334.56C75.7967 334.307 76.49 334.18 77.25 334.18C78.09 334.18 78.85 334.353 79.53 334.7C80.2233 335.033 80.81 335.52 81.29 336.16C81.7833 336.787 82.1633 337.547 82.43 338.44C82.6967 339.333 82.83 340.34 82.83 341.46C82.83 342.62 82.6833 343.68 82.39 344.64C82.11 345.587 81.71 346.4 81.19 347.08C80.67 347.76 80.05 348.287 79.33 348.66C78.61 349.033 77.8167 349.22 76.95 349.22C75.6967 349.22 74.6567 348.9 73.83 348.26C73.0167 347.607 72.4967 346.713 72.27 345.58H74.09C74.29 346.247 74.6367 346.76 75.13 347.12C75.6233 347.467 76.2367 347.64 76.97 347.64ZM73.93 339.14C73.93 339.62 74.01 340.067 74.17 340.48C74.33 340.893 74.5567 341.253 74.85 341.56C75.1433 341.853 75.49 342.087 75.89 342.26C76.3033 342.433 76.7633 342.52 77.27 342.52C77.7767 342.52 78.2367 342.433 78.65 342.26C79.0633 342.087 79.4167 341.853 79.71 341.56C80.0167 341.253 80.25 340.893 80.41 340.48C80.57 340.067 80.65 339.62 80.65 339.14C80.65 338.66 80.57 338.213 80.41 337.8C80.25 337.373 80.0167 337.013 79.71 336.72C79.4167 336.413 79.0633 336.173 78.65 336C78.2367 335.827 77.7767 335.74 77.27 335.74C76.7633 335.74 76.3033 335.827 75.89 336C75.49 336.173 75.1433 336.413 74.85 336.72C74.5567 337.013 74.33 337.373 74.17 337.8C74.01 338.213 73.93 338.66 73.93 339.14Z" fill="black"/>
<defs>
<clipPath id="clip0_7_175">
<rect width="222.895" height="207.864" fill="white"/>
</clipPath>
</defs>
</svg>
